<svg xmlns="http://www.w3.org/2000/svg" direction="ltr" width="454.13" height="227.49" viewBox="1809.41 1697.52 454.13 227.49" stroke-linecap="round" stroke-linejoin="round" style="background-color: rgb(249, 250, 251);"><g transform="matrix(1, 0, 0, 1, 1911.17, 1738.23)" opacity="1"><path d="M2.9533,-2.6864 Q5.8915,-2.5264 9.83,-2.3958 T18.9575,-2.1558 30.63,-1.9517 45.06,-1.7707 62.34,-1.603 82.53,-1.441 105.65,-1.2789 131.73,-1.1126 160.78,-0.9391 184.54,-0.7965 198.19,1.1003 206.37,9.0747 211.03,26.8016 213.53,44.7106 214.54,54.6687 213.63,60.7445 210.07,64.6608 203.80,66.9495 194.96,68.2686 183.42,69.1903 169.00,69.968 151.65,70.7154 131.31,71.4921 107.99,72.3306 81.66,73.2486 52.34,74.2562 28.35,75.0757 14.64,74.2618 6.33,68.8642 1.34,56.2889 -1.6891,35.3873 -4.3785,7.1111 -5.8456,-8.8253 -5.7201,-9.3607 -5.4301,-9.8279 -5.0061,-10.1782 -4.4925,-10.3747 -3.943,-10.3969 -3.4152,-10.2425 -2.9643,-9.9276 -2.6376,-9.4853 -2.4692,-8.9618 -2.4768,-8.4119 -2.6596,-7.8932 -2.9984,-7.4601 -3.4578,-7.1578 -3.9897,-7.018 -4.5383,-7.0554 -5.0463,-7.266 -5.4605,-7.6278 -5.7374,-8.1029 -5.8482,-8.6416 -5.7811,-9.1874 -5.5433,-9.6833 -5.1596,-10.0772 -4.6701,-10.328 -4.1263,-10.4094 -3.5849,-10.3128 -3.1027,-10.0485 -2.7301,-9.644 -2.5062,-9.1417 -2.4354,-8.8725 -0.9493,6.7856 1.71,34.8661 4.46,54.9998 8.42,66.4432 15.24,71.0506 28.24,71.6326 52.22,70.8115 81.54,69.8029 107.86,68.8836 131.18,68.0436 151.50,67.2649 168.81,66.5159 183.13,65.7401 194.43,64.843 202.65,63.7031 207.84,62.2177 210.49,59.8308 211.12,54.8892 210.09,45.1833 207.72,27.7464 203.90,11.1523 197.26,4.2221 184.49,2.7262 160.76,2.6206 131.71,2.4907 105.63,2.3845 82.51,2.3049 62.32,2.256 45.04,2.2431 30.61,2.2732 18.93,2.3551 9.81,2.4994 2.92,2.7175 -0.5591,2.7352 -1.5633,2.313 -2.3295,1.5386 -2.741,0.53 -2.7351,-0.5593 -2.3129,-1.5634 -1.5385,-2.3295 -0.5299,-2.741 0.01,-2.8464 2.95,-2.6864 Z" fill="#1d1d1d" stroke-linecap="round"/></g><g transform="matrix(1, 0, 0, 1, 1960.18, 1754.85)" opacity="1"><g><text font-size="24px" font-family="'tldraw_draw', sans-serif" font-style="normal" font-weight="normal" line-height="32.400000000000006px" dominant-baseline="mathematical" alignment-baseline="mathematical" stroke="rgb(249, 250, 251)" stroke-width="2px" fill="rgb(249, 250, 251)"><tspan alignment-baseline="mathematical" x="0px" y="12.5px">01/12/24</tspan></text><text font-size="24px" font-family="'tldraw_draw', sans-serif" font-style="normal" font-weight="normal" line-height="32.400000000000006px" dominant-baseline="mathematical" alignment-baseline="mathematical" stroke="none" stroke-width="2px" fill="#1d1d1d"><tspan alignment-baseline="mathematical" x="0px" y="12.5px">01/12/24</tspan></text></g></g><g transform="matrix(1, 0, 0, 1, 2011.58, 1799.83)" opacity="1"><path d="M2.1077,2.6558 Q1.5079,4.6162 0.47,8.1691 T-1.1206,13.718 -2.608,17.2796 -5.7507,19.9251 -11.444,21.5402 -19.9231,22.5354 -31.7295,23.5036 -47.2414,24.612 -66.6219,25.9255 -89.95,27.4761 -117.2671,29.2801 -140.0589,30.7786 -152.4265,32.987 -159.1248,40.0058 -163.4835,56.0141 -166.4742,72.731 -168.0069,82.0941 -168.1812,86.9479 -165.8096,89.2963 -161.4852,90.4109 -156.1862,90.9036 -149.2346,91.1834 -140.7388,91.3168 -130.7363,91.3577 -119.2407,91.3393 -106.2572,91.281 -91.7878,91.1939 -75.8334,91.0848 -58.3944,90.9574 -39.4711,90.8143 -19.0633,90.6568 2.82,90.4857 26.20,90.3018 51.06,90.1053 77.41,89.8964 105.23,89.6754 134.55,89.4422 165.35,89.1971 189.87,89.0037 203.13,87.5241 210.11,80.9411 214.24,65.2828 216.87,48.8332 218.05,39.6735 217.53,35.0514 215.04,32.8419 210.09,31.4231 202.18,30.2857 191.28,29.3542 177.45,28.5174 160.73,27.6858 141.10,26.8061 118.58,25.848 93.15,24.7943 64.82,23.6356 41.65,22.6919 28.35,21.6922 19.35,19.1954 11.43,13.9305 2.83,6.3701 -2.0072,2.0245 -2.2814,1.5477 -2.3889,1.0082 -2.3186,0.4627 -2.0777,-0.0318 -1.6916,-0.4235 -1.2005,-0.6714 -0.6561,-0.7496 -0.1152,-0.6498 0.36,-0.3825 0.73,0.0243 0.95,0.5281 1.00,1.076 0.87,1.6107 0.58,2.0762 0.15,2.4239 -0.3579,2.6172 -0.9077,2.6359 -1.4346,2.4782 -1.8836,2.1604 -2.2076,1.7159 -2.3727,1.1912 -2.3617,0.6413 -2.1756,0.1237 -1.8339,-0.3074 -1.3726,-0.6069 -0.8397,-0.7433 -0.2912,-0.7025 0.21,-0.4886 0.45,-0.3403 5.12,3.789 13.33,11.0915 20.35,15.9455 28.67,18.2681 41.79,19.2461 64.96,20.188 93.29,21.3443 118.72,22.3949 141.26,23.3488 160.90,24.2231 177.66,25.0482 191.58,25.8805 202.73,26.828 211.26,28.1346 217.32,30.3643 220.70,34.1581 221.45,39.9645 220.27,49.3841 217.48,66.3225 212.47,83.0965 203.99,90.6346 189.92,92.4455 165.37,92.6433 134.58,92.8892 105.26,93.1234 77.43,93.3459 51.09,93.5569 26.23,93.7563 2.85,93.9442 -19.036,94.1207 -39.4438,94.2858 -58.3676,94.4394 -75.8073,94.5811 -91.7634,94.71 -106.2363,94.8244 -119.2273,94.9203 -130.7393,94.9904 -140.7784,95.0202 -149.3602,94.9821 -156.5261,94.8209 -162.3913,94.4064 -167.0715,93.2754 -170.2666,90.8984 -171.6447,87.1723 -171.4325,81.5756 -169.896,72.1134 -166.7702,54.9479 -161.5877,37.8341 -153.4611,29.8101 -140.3232,27.2295 -117.509,25.6801 -90.2003,23.8148 -66.8878,22.1802 -47.5394,20.7523 -32.1026,19.4907 -20.5036,18.33 -12.694,17.2031 -7.9068,15.575 -5.6195,12.5243 -4.3532,6.9289 -3.1267,1.3114 -2.4713,-1.187 -1.829,-2.0424 -0.9081,-2.5869 0.15,-2.7375 1.18,-2.4713 2.04,-1.8289 2.58,-0.908 2.73,0.1511 2.70,0.6955 2.10,2.6558 Z" fill="#1d1d1d" stroke-linecap="round"/></g><g transform="matrix(1, 0, 0, 1, 1970.45, 1819.53)" opacity="1"><g><text font-size="24px" font-family="'tldraw_draw', sans-serif" font-style="normal" font-weight="normal" line-height="32.400000000000006px" dominant-baseline="mathematical" alignment-baseline="mathematical" stroke="rgb(249, 250, 251)" stroke-width="2px" fill="rgb(249, 250, 251)"><tspan alignment-baseline="mathematical" x="0px" y="12.5px">Dec</tspan><tspan alignment-baseline="mathematical" x="43.3671875px" y="12.5px"> </tspan><tspan alignment-baseline="mathematical" x="51.59375px" y="12.5px">2024</tspan></text><text font-size="24px" font-family="'tldraw_draw', sans-serif" font-style="normal" font-weight="normal" line-height="32.400000000000006px" dominant-baseline="mathematical" alignment-baseline="mathematical" stroke="none" stroke-width="2px" fill="#ff8787"><tspan alignment-baseline="mathematical" x="0px" y="12.5px">Dec</tspan><tspan alignment-baseline="mathematical" x="43.3671875px" y="12.5px"> </tspan><tspan alignment-baseline="mathematical" x="51.59375px" y="12.5px">2024</tspan></text></g></g><g transform="matrix(1, 0, 0, 1, 1855.48, 1829.07) scale(0.8281759531906676, 0.82)" opacity="1"><g><text font-size="24px" font-family="'tldraw_draw', sans-serif" font-style="normal" font-weight="normal" line-height="32.400000000000006px" dominant-baseline="mathematical" alignment-baseline="mathematical" stroke="rgb(249, 250, 251)" stroke-width="2px" fill="rgb(249, 250, 251)"><tspan alignment-baseline="mathematical" x="0px" y="12.5px">Nov</tspan><tspan alignment-baseline="mathematical" x="46.796875px" y="12.5px"> </tspan><tspan alignment-baseline="mathematical" x="55.03125px" y="12.5px">2024</tspan></text><text font-size="24px" font-family="'tldraw_draw', sans-serif" font-style="normal" font-weight="normal" line-height="32.400000000000006px" dominant-baseline="mathematical" alignment-baseline="mathematical" stroke="none" stroke-width="2px" fill="#adb5bd"><tspan alignment-baseline="mathematical" x="0px" y="12.5px">Nov</tspan><tspan alignment-baseline="mathematical" x="46.796875px" y="12.5px"> </tspan><tspan alignment-baseline="mathematical" x="55.03125px" y="12.5px">2024</tspan></text></g></g><g transform="matrix(1, 0, 0, 1, 2109.88, 1827.88)" opacity="1"><g><text font-size="24px" font-family="'tldraw_draw', sans-serif" font-style="normal" font-weight="normal" line-height="32.400000000000006px" dominant-baseline="mathematical" alignment-baseline="mathematical" stroke="rgb(249, 250, 251)" stroke-width="2px" fill="rgb(249, 250, 251)"><tspan alignment-baseline="mathematical" x="0px" y="12.5px">Jan</tspan><tspan alignment-baseline="mathematical" x="46.125px" y="12.5px"> </tspan><tspan alignment-baseline="mathematical" x="54.359375px" y="12.5px">2025</tspan></text><text font-size="24px" font-family="'tldraw_draw', sans-serif" font-style="normal" font-weight="normal" line-height="32.400000000000006px" dominant-baseline="mathematical" alignment-baseline="mathematical" stroke="none" stroke-width="2px" fill="#adb5bd"><tspan alignment-baseline="mathematical" x="0px" y="12.5px">Jan</tspan><tspan alignment-baseline="mathematical" x="46.125px" y="12.5px"> </tspan><tspan alignment-baseline="mathematical" x="54.359375px" y="12.5px">2025</tspan></text></g></g><g transform="matrix(1, 0, 0, 1, 1998.58, 1855.36)" opacity="1"><g><path d="M7.1926,28.4085 Q2.0737,23.1636 1.05,19.6863 T0.7105,12.5985 3.66,6.1434 9.22,1.7994 16.15,0.4539 22.97,2.4762 28.07,7.4084 30.37,14.1015 29.31,21.1051 25.11,26.851 18.78,30.0246 11.71,29.9257 5.45,26.611 1.41,20.7805 L0.1046,17.3636 " fill="#f4dadb"/><path d="M3.6916,26.6086 Q0.1978,24.8017 -1.098,20.7966 T-1.7076,12.5935 1.53,5.031 7.85,-0.1492 15.82,-1.872 23.74,0.2975 29.77,5.8329 32.59,13.4629 31.56,21.5683 26.90,28.3094 19.71,32.1544 11.57,32.2398 4.27,28.5792 0.58,21.6192 0.09,17.3654 0.10,17.3618 2.23,19.9417 6.62,24.6427 11.86,27.6115 17.86,27.8948 23.32,25.3927 27.06,20.6419 28.14,14.7401 26.38,8.984 22.20,4.6549 16.48,2.7798 10.59,3.748 5.79,7.2558 3.12,12.6034 3.20,18.576 5.57,24.9636 7.19,28.4085 3.69,26.6086 Z" fill="#ff8787"/></g></g><g transform="matrix(1, 0, 0, 1, 2008.29, 1854.06)" opacity="1"><g><text font-size="24px" font-family="'tldraw_draw', sans-serif" font-style="normal" font-weight="normal" line-height="32.400000000000006px" dominant-baseline="mathematical" alignment-baseline="mathematical" stroke="rgb(249, 250, 251)" stroke-width="2px" fill="rgb(249, 250, 251)"><tspan alignment-baseline="mathematical" x="0px" y="12.5px">1</tspan></text><text font-size="24px" font-family="'tldraw_draw', sans-serif" font-style="normal" font-weight="normal" line-height="32.400000000000006px" dominant-baseline="mathematical" alignment-baseline="mathematical" stroke="none" stroke-width="2px" fill="#ff8787"><tspan alignment-baseline="mathematical" x="0px" y="12.5px">1</tspan></text></g></g><g transform="matrix(1, 0, 0, 1, 2049.68, 1853.85)" opacity="1"><g><text font-size="24px" font-family="'tldraw_draw', sans-serif" font-style="normal" font-weight="normal" line-height="32.400000000000006px" dominant-baseline="mathematical" alignment-baseline="mathematical" stroke="rgb(249, 250, 251)" stroke-width="2px" fill="rgb(249, 250, 251)"><tspan alignment-baseline="mathematical" x="0px" y="12.5px">2</tspan></text><text font-size="24px" font-family="'tldraw_draw', sans-serif" font-style="normal" font-weight="normal" line-height="32.400000000000006px" dominant-baseline="mathematical" alignment-baseline="mathematical" stroke="none" stroke-width="2px" fill="#adb5bd"><tspan alignment-baseline="mathematical" x="0px" y="12.5px">2</tspan></text></g></g><g transform="matrix(1, 0, 0, 1, 1948.84, 1856.28)" opacity="1"><g><text font-size="24px" font-family="'tldraw_draw', sans-serif" font-style="normal" font-weight="normal" line-height="32.400000000000006px" dominant-baseline="mathematical" alignment-baseline="mathematical" stroke="rgb(249, 250, 251)" stroke-width="2px" fill="rgb(249, 250, 251)"><tspan alignment-baseline="mathematical" x="0px" y="12.5px">30</tspan></text><text font-size="24px" font-family="'tldraw_draw', sans-serif" font-style="normal" font-weight="normal" line-height="32.400000000000006px" dominant-baseline="mathematical" alignment-baseline="mathematical" stroke="none" stroke-width="2px" fill="#adb5bd"><tspan alignment-baseline="mathematical" x="0px" y="12.5px">30</tspan></text></g></g><g transform="matrix(1, 0, 0, 1, 1896.52, 1857.01)" opacity="1"><g><text font-size="24px" font-family="'tldraw_draw', sans-serif" font-style="normal" font-weight="normal" line-height="32.400000000000006px" dominant-baseline="mathematical" alignment-baseline="mathematical" stroke="rgb(249, 250, 251)" stroke-width="2px" fill="rgb(249, 250, 251)"><tspan alignment-baseline="mathematical" x="0px" y="12.5px">29</tspan></text><text font-size="24px" font-family="'tldraw_draw', sans-serif" font-style="normal" font-weight="normal" line-height="32.400000000000006px" dominant-baseline="mathematical" alignment-baseline="mathematical" stroke="none" stroke-width="2px" fill="#adb5bd"><tspan alignment-baseline="mathematical" x="0px" y="12.5px">29</tspan></text></g></g><g transform="matrix(1, 0, 0, 1, 1845.36, 1856.26)" opacity="1"><g><text font-size="24px" font-family="'tldraw_draw', sans-serif" font-style="normal" font-weight="normal" line-height="32.400000000000006px" dominant-baseline="mathematical" alignment-baseline="mathematical" stroke="rgb(249, 250, 251)" stroke-width="2px" fill="rgb(249, 250, 251)"><tspan alignment-baseline="mathematical" x="0px" y="12.5px">28</tspan></text><text font-size="24px" font-family="'tldraw_draw', sans-serif" font-style="normal" font-weight="normal" line-height="32.400000000000006px" dominant-baseline="mathematical" alignment-baseline="mathematical" stroke="none" stroke-width="2px" fill="#adb5bd"><tspan alignment-baseline="mathematical" x="0px" y="12.5px">28</tspan></text></g></g><g transform="matrix(1, 0, 0, 1, 2110.37, 1855.67)" opacity="1"><g><text font-size="24px" font-family="'tldraw_draw', sans-serif" font-style="normal" font-weight="normal" line-height="32.400000000000006px" dominant-baseline="mathematical" alignment-baseline="mathematical" stroke="rgb(249, 250, 251)" stroke-width="2px" fill="rgb(249, 250, 251)"><tspan alignment-baseline="mathematical" x="0px" y="12.5px">3</tspan></text><text font-size="24px" font-family="'tldraw_draw', sans-serif" font-style="normal" font-weight="normal" line-height="32.400000000000006px" dominant-baseline="mathematical" alignment-baseline="mathematical" stroke="none" stroke-width="2px" fill="#adb5bd"><tspan alignment-baseline="mathematical" x="0px" y="12.5px">3</tspan></text></g></g><g transform="matrix(1, 0, 0, 1, 2170.49, 1856.27)" opacity="1"><g><text font-size="24px" font-family="'tldraw_draw', sans-serif" font-style="normal" font-weight="normal" line-height="32.400000000000006px" dominant-baseline="mathematical" alignment-baseline="mathematical" stroke="rgb(249, 250, 251)" stroke-width="2px" fill="rgb(249, 250, 251)"><tspan alignment-baseline="mathematical" x="0px" y="12.5px">4</tspan></text><text font-size="24px" font-family="'tldraw_draw', sans-serif" font-style="normal" font-weight="normal" line-height="32.400000000000006px" dominant-baseline="mathematical" alignment-baseline="mathematical" stroke="none" stroke-width="2px" fill="#adb5bd"><tspan alignment-baseline="mathematical" x="0px" y="12.5px">4</tspan></text></g></g><g transform="matrix(1, 0, 0, 1, 2049.69, 1789.93)" opacity="1"><g><path d="M1.4955,-1.4456 Q2.991,-2.8912 3.80,-3.6807 T5.0663,-4.6953 5.73,-4.4253 6.06,-2.6299 6.22,-0.6193 6.96,0.4195 9.98,0.7498 16.85,0.4561 23.86,-0.0005 27.68,-0.4163 29.73,-1.3091 30.76,-3.128 31.26,-4.9535 31.70,-5.7651 32.60,-5.467 34.39,-3.8216 36.18,-1.9963 36.97,-0.7864 36.67,0.7267 35.03,3.2575 33.22,5.705 32.23,6.906 31.69,7.0193 31.39,5.9959 31.23,4.7587 30.53,4.1014 27.70,3.8161 21.26,3.8075 14.69,3.8949 11.09,4.0977 9.09,4.8287 7.92,6.4685 7.24,8.1395 6.65,8.8452 5.47,8.4036 3.09,6.5083 -0.3051,3.5601 -1.08,0.975 1.49,-1.4456 Z" fill="#e8e8e8"/><path d="M0.2057,-2.7799 Q1.773,-4.1513 2.60,-4.9399 T5.1202,-5.9495 7.36,-3.8197 10.12,-1.1961 16.80,-1.1477 23.77,-1.4813 27.45,-1.7975 29.15,-3.3582 30.96,-6.0034 33.27,-6.8432 35.46,-5.0685 37.35,-3.0806 38.4,-1.3968 38.26,1.03 36.44,4.1078 34.49,6.6532 32.37,8.0624 30.19,7.0119 27.49,5.4408 21.25,5.4379 14.71,5.3977 11.24,5.5198 9.51,6.8996 7.60,9.3195 4.97,9.8955 2.09,7.8228 -1.3008,4.7072 -3.2695,2.8721 -3.5058,2.4696 -3.6013,2.0126 -3.5458,1.5491 -3.3453,1.1276 -3.0206,0.7922 -2.6059,0.578 -2.1444,0.5075 -1.6846,0.5879 -1.2746,0.811 -0.9573,1.1534 -0.7659,1.5791 -0.7204,2.0437 -0.8257,2.4985 -1.0707,2.8958 -1.4297,3.1941 -1.8652,3.3622 -2.3316,3.3824 -2.78,3.2526 -3.1635,2.9864 -3.4419,2.6118 -3.5861,2.1678 -3.581,1.701 -3.4271,1.2603 -3.1405,0.8918 -2.7513,0.6341 -2.3002,0.5142 -1.8344,0.5446 -1.4027,0.7221 -1.2015,0.8462 0.69,2.413 4.31,5.4726 6.70,5.6129 8.44,3.5669 10.93,2.6755 14.67,2.3921 21.28,2.1771 28.02,2.0653 31.40,2.6623 32.60,4.5652 32.09,5.7496 31.94,4.7568 33.63,2.4072 34.54,-0.3126 33.48,-2.721 32.02,-2.4271 30.45,-0.1431 27.91,0.9649 23.96,1.4803 16.90,2.06 9.61,2.4339 5.95,1.7087 4.70,-0.107 4.31,-2.4302 5.01,-3.441 5.00,-2.4214 2.78,-0.1112 1.04,1.6155 0.34,1.8906 -0.4068,1.8779 -1.0945,1.5792 -1.6156,1.0401 -1.8906,0.3427 -1.8778,-0.4069 -1.5792,-1.0946 -1.3615,-1.4087 0.20,-2.7799 Z" fill="#1d1d1d" stroke-linecap="round"/></g></g></svg>