<svg width="634" height="412" viewBox="0 0 634 412" fill="none" xmlns="http://www.w3.org/2000/svg">
<path d="M351.393 135.273V144H350.337V136.381H350.286L348.155 137.795V136.722L350.337 135.273H351.393ZM356.75 144.119C356.108 144.119 355.561 143.945 355.109 143.595C354.658 143.243 354.313 142.733 354.074 142.065C353.835 141.395 353.716 140.585 353.716 139.636C353.716 138.693 353.835 137.888 354.074 137.22C354.315 136.55 354.662 136.038 355.114 135.686C355.568 135.331 356.114 135.153 356.75 135.153C357.386 135.153 357.93 135.331 358.382 135.686C358.837 136.038 359.183 136.55 359.422 137.22C359.663 137.888 359.784 138.693 359.784 139.636C359.784 140.585 359.665 141.395 359.426 142.065C359.188 142.733 358.842 143.243 358.391 143.595C357.939 143.945 357.392 144.119 356.75 144.119ZM356.75 143.182C357.386 143.182 357.881 142.875 358.233 142.261C358.585 141.648 358.761 140.773 358.761 139.636C358.761 138.881 358.68 138.237 358.518 137.706C358.359 137.175 358.129 136.77 357.828 136.491C357.53 136.213 357.17 136.074 356.75 136.074C356.119 136.074 355.626 136.385 355.271 137.007C354.916 137.626 354.739 138.503 354.739 139.636C354.739 140.392 354.818 141.034 354.977 141.562C355.136 142.091 355.365 142.493 355.663 142.768C355.964 143.044 356.327 143.182 356.75 143.182ZM364.25 144.119C363.608 144.119 363.061 143.945 362.609 143.595C362.158 143.243 361.813 142.733 361.574 142.065C361.335 141.395 361.216 140.585 361.216 139.636C361.216 138.693 361.335 137.888 361.574 137.22C361.815 136.55 362.162 136.038 362.614 135.686C363.068 135.331 363.614 135.153 364.25 135.153C364.886 135.153 365.43 135.331 365.882 135.686C366.337 136.038 366.683 136.55 366.922 137.22C367.163 137.888 367.284 138.693 367.284 139.636C367.284 140.585 367.165 141.395 366.926 142.065C366.688 142.733 366.342 143.243 365.891 143.595C365.439 143.945 364.892 144.119 364.25 144.119ZM364.25 143.182C364.886 143.182 365.381 142.875 365.733 142.261C366.085 141.648 366.261 140.773 366.261 139.636C366.261 138.881 366.18 138.237 366.018 137.706C365.859 137.175 365.629 136.77 365.328 136.491C365.03 136.213 364.67 136.074 364.25 136.074C363.619 136.074 363.126 136.385 362.771 137.007C362.416 137.626 362.239 138.503 362.239 139.636C362.239 140.392 362.318 141.034 362.477 141.562C362.636 142.091 362.865 142.493 363.163 142.768C363.464 143.044 363.827 143.182 364.25 143.182Z" fill="black"/>
<path d="M378 144H373" stroke="black" stroke-linecap="round"/>
<path d="M356.694 160.153C357.051 160.156 357.409 160.224 357.767 160.358C358.125 160.491 358.452 160.713 358.748 161.023C359.043 161.33 359.28 161.749 359.459 162.28C359.638 162.811 359.728 163.477 359.728 164.278C359.728 165.054 359.654 165.743 359.506 166.345C359.361 166.945 359.151 167.45 358.875 167.862C358.603 168.274 358.27 168.587 357.878 168.8C357.489 169.013 357.049 169.119 356.557 169.119C356.069 169.119 355.632 169.023 355.249 168.83C354.868 168.634 354.556 168.362 354.311 168.016C354.07 167.666 353.915 167.261 353.847 166.801H354.887C354.98 167.202 355.167 167.533 355.445 167.794C355.726 168.053 356.097 168.182 356.557 168.182C357.23 168.182 357.762 167.888 358.151 167.3C358.543 166.712 358.739 165.881 358.739 164.807H358.671C358.512 165.045 358.323 165.251 358.104 165.425C357.885 165.598 357.642 165.732 357.375 165.825C357.108 165.919 356.824 165.966 356.523 165.966C356.023 165.966 355.564 165.842 355.147 165.595C354.732 165.345 354.4 165.003 354.15 164.568C353.902 164.131 353.779 163.631 353.779 163.068C353.779 162.534 353.898 162.045 354.137 161.602C354.378 161.156 354.716 160.801 355.151 160.537C355.588 160.273 356.103 160.145 356.694 160.153ZM356.694 161.091C356.336 161.091 356.013 161.18 355.726 161.359C355.442 161.536 355.216 161.774 355.049 162.075C354.884 162.374 354.801 162.705 354.801 163.068C354.801 163.432 354.881 163.763 355.04 164.061C355.202 164.357 355.422 164.592 355.701 164.768C355.982 164.942 356.301 165.028 356.659 165.028C356.929 165.028 357.181 164.976 357.414 164.871C357.647 164.763 357.85 164.616 358.023 164.432C358.199 164.244 358.337 164.033 358.436 163.797C358.536 163.558 358.586 163.31 358.586 163.051C358.586 162.71 358.503 162.391 358.338 162.092C358.176 161.794 357.952 161.553 357.665 161.368C357.381 161.183 357.057 161.091 356.694 161.091ZM364.25 169.119C363.608 169.119 363.061 168.945 362.609 168.595C362.158 168.243 361.813 167.733 361.574 167.065C361.335 166.395 361.216 165.585 361.216 164.636C361.216 163.693 361.335 162.888 361.574 162.22C361.815 161.55 362.162 161.038 362.614 160.686C363.068 160.331 363.614 160.153 364.25 160.153C364.886 160.153 365.43 160.331 365.882 160.686C366.337 161.038 366.683 161.55 366.922 162.22C367.163 162.888 367.284 163.693 367.284 164.636C367.284 165.585 367.165 166.395 366.926 167.065C366.688 167.733 366.342 168.243 365.891 168.595C365.439 168.945 364.892 169.119 364.25 169.119ZM364.25 168.182C364.886 168.182 365.381 167.875 365.733 167.261C366.085 166.648 366.261 165.773 366.261 164.636C366.261 163.881 366.18 163.237 366.018 162.706C365.859 162.175 365.629 161.77 365.328 161.491C365.03 161.213 364.67 161.074 364.25 161.074C363.619 161.074 363.126 161.385 362.771 162.007C362.416 162.626 362.239 163.503 362.239 164.636C362.239 165.392 362.318 166.034 362.477 166.562C362.636 167.091 362.865 167.493 363.163 167.768C363.464 168.044 363.827 168.182 364.25 168.182Z" fill="black"/>
<path d="M378 169H373" stroke="black" stroke-linecap="round"/>
<path d="M356.804 194.119C356.219 194.119 355.702 194.016 355.253 193.808C354.807 193.598 354.459 193.31 354.209 192.943C353.959 192.574 353.836 192.153 353.838 191.682C353.836 191.312 353.908 190.972 354.056 190.659C354.203 190.344 354.405 190.081 354.661 189.871C354.919 189.658 355.208 189.523 355.526 189.466V189.415C355.108 189.307 354.776 189.072 354.529 188.712C354.282 188.348 354.159 187.935 354.162 187.472C354.159 187.028 354.272 186.632 354.499 186.283C354.726 185.933 355.039 185.658 355.436 185.456C355.837 185.254 356.293 185.153 356.804 185.153C357.31 185.153 357.762 185.254 358.159 185.456C358.557 185.658 358.87 185.933 359.097 186.283C359.327 186.632 359.444 187.028 359.446 187.472C359.444 187.935 359.317 188.348 359.067 188.712C358.82 189.072 358.492 189.307 358.083 189.415V189.466C358.398 189.523 358.682 189.658 358.935 189.871C359.188 190.081 359.39 190.344 359.54 190.659C359.691 190.972 359.767 191.312 359.77 191.682C359.767 192.153 359.64 192.574 359.387 192.943C359.137 193.31 358.789 193.598 358.343 193.808C357.9 194.016 357.387 194.119 356.804 194.119ZM356.804 193.182C357.199 193.182 357.54 193.118 357.827 192.99C358.114 192.862 358.336 192.682 358.492 192.449C358.648 192.216 358.728 191.943 358.73 191.631C358.728 191.301 358.642 191.01 358.475 190.757C358.307 190.504 358.078 190.305 357.789 190.161C357.502 190.016 357.174 189.943 356.804 189.943C356.432 189.943 356.1 190.016 355.807 190.161C355.517 190.305 355.289 190.504 355.121 190.757C354.956 191.01 354.875 191.301 354.878 191.631C354.875 191.943 354.951 192.216 355.104 192.449C355.26 192.682 355.483 192.862 355.773 192.99C356.063 193.118 356.407 193.182 356.804 193.182ZM356.804 189.04C357.117 189.04 357.394 188.977 357.635 188.852C357.88 188.727 358.071 188.553 358.211 188.328C358.35 188.104 358.421 187.841 358.424 187.54C358.421 187.244 358.351 186.987 358.215 186.768C358.078 186.547 357.89 186.376 357.648 186.257C357.407 186.135 357.125 186.074 356.804 186.074C356.478 186.074 356.192 186.135 355.948 186.257C355.703 186.376 355.515 186.547 355.381 186.768C355.248 186.987 355.182 187.244 355.185 187.54C355.182 187.841 355.249 188.104 355.385 188.328C355.525 188.553 355.716 188.727 355.961 188.852C356.205 188.977 356.486 189.04 356.804 189.04ZM364.25 194.119C363.608 194.119 363.061 193.945 362.609 193.595C362.158 193.243 361.813 192.733 361.574 192.065C361.335 191.395 361.216 190.585 361.216 189.636C361.216 188.693 361.335 187.888 361.574 187.22C361.815 186.55 362.162 186.038 362.614 185.686C363.068 185.331 363.614 185.153 364.25 185.153C364.886 185.153 365.43 185.331 365.882 185.686C366.337 186.038 366.683 186.55 366.922 187.22C367.163 187.888 367.284 188.693 367.284 189.636C367.284 190.585 367.165 191.395 366.926 192.065C366.688 192.733 366.342 193.243 365.891 193.595C365.439 193.945 364.892 194.119 364.25 194.119ZM364.25 193.182C364.886 193.182 365.381 192.875 365.733 192.261C366.085 191.648 366.261 190.773 366.261 189.636C366.261 188.881 366.18 188.237 366.018 187.706C365.859 187.175 365.629 186.77 365.328 186.491C365.03 186.213 364.67 186.074 364.25 186.074C363.619 186.074 363.126 186.385 362.771 187.007C362.416 187.626 362.239 188.503 362.239 189.636C362.239 190.392 362.318 191.034 362.477 191.562C362.636 192.091 362.865 192.493 363.163 192.768C363.464 193.044 363.827 193.182 364.25 193.182Z" fill="black"/>
<path d="M378 194H373" stroke="black" stroke-linecap="round"/>
<path d="M355.008 219L358.912 211.278V211.21H354.412V210.273H360.002V211.261L356.116 219H355.008ZM364.25 219.119C363.608 219.119 363.061 218.945 362.609 218.595C362.158 218.243 361.813 217.733 361.574 217.065C361.335 216.395 361.216 215.585 361.216 214.636C361.216 213.693 361.335 212.888 361.574 212.22C361.815 211.55 362.162 211.038 362.614 210.686C363.068 210.331 363.614 210.153 364.25 210.153C364.886 210.153 365.43 210.331 365.882 210.686C366.337 211.038 366.683 211.55 366.922 212.22C367.163 212.888 367.284 213.693 367.284 214.636C367.284 215.585 367.165 216.395 366.926 217.065C366.688 217.733 366.342 218.243 365.891 218.595C365.439 218.945 364.892 219.119 364.25 219.119ZM364.25 218.182C364.886 218.182 365.381 217.875 365.733 217.261C366.085 216.648 366.261 215.773 366.261 214.636C366.261 213.881 366.18 213.237 366.018 212.706C365.859 212.175 365.629 211.77 365.328 211.491C365.03 211.213 364.67 211.074 364.25 211.074C363.619 211.074 363.126 211.385 362.771 212.007C362.416 212.626 362.239 213.503 362.239 214.636C362.239 215.392 362.318 216.034 362.477 216.562C362.636 217.091 362.865 217.493 363.163 217.768C363.464 218.044 363.827 218.182 364.25 218.182Z" fill="black"/>
<path d="M378 219H373" stroke="black" stroke-linecap="round"/>
<path d="M356.813 244.119C356.455 244.114 356.097 244.045 355.739 243.915C355.381 243.784 355.054 243.564 354.759 243.254C354.463 242.942 354.226 242.52 354.047 241.989C353.868 241.455 353.779 240.784 353.779 239.977C353.779 239.205 353.851 238.52 353.996 237.923C354.141 237.324 354.351 236.82 354.627 236.411C354.902 235.999 355.235 235.686 355.624 235.473C356.016 235.26 356.458 235.153 356.949 235.153C357.438 235.153 357.873 235.251 358.253 235.447C358.637 235.641 358.949 235.911 359.191 236.257C359.432 236.604 359.588 237.003 359.659 237.455H358.62C358.523 237.062 358.336 236.737 358.057 236.479C357.779 236.22 357.409 236.091 356.949 236.091C356.273 236.091 355.74 236.385 355.351 236.973C354.965 237.561 354.77 238.386 354.767 239.449H354.836C354.995 239.207 355.184 239.001 355.402 238.831C355.624 238.658 355.868 238.524 356.135 238.43C356.402 238.337 356.685 238.29 356.983 238.29C357.483 238.29 357.941 238.415 358.355 238.665C358.77 238.912 359.103 239.254 359.353 239.692C359.603 240.126 359.728 240.625 359.728 241.188C359.728 241.727 359.607 242.222 359.365 242.67C359.124 243.116 358.784 243.472 358.347 243.736C357.912 243.997 357.401 244.125 356.813 244.119ZM356.813 243.182C357.171 243.182 357.492 243.092 357.776 242.913C358.063 242.734 358.289 242.494 358.453 242.193C358.621 241.892 358.705 241.557 358.705 241.188C358.705 240.827 358.624 240.499 358.462 240.203C358.303 239.905 358.083 239.668 357.801 239.491C357.523 239.315 357.205 239.227 356.847 239.227C356.577 239.227 356.326 239.281 356.093 239.389C355.86 239.494 355.655 239.639 355.479 239.824C355.306 240.009 355.169 240.22 355.07 240.459C354.971 240.695 354.921 240.943 354.921 241.205C354.921 241.551 355.002 241.875 355.164 242.176C355.328 242.477 355.553 242.72 355.837 242.905C356.124 243.089 356.449 243.182 356.813 243.182ZM364.25 244.119C363.608 244.119 363.061 243.945 362.609 243.595C362.158 243.243 361.813 242.733 361.574 242.065C361.335 241.395 361.216 240.585 361.216 239.636C361.216 238.693 361.335 237.888 361.574 237.22C361.815 236.55 362.162 236.038 362.614 235.686C363.068 235.331 363.614 235.153 364.25 235.153C364.886 235.153 365.43 235.331 365.882 235.686C366.337 236.038 366.683 236.55 366.922 237.22C367.163 237.888 367.284 238.693 367.284 239.636C367.284 240.585 367.165 241.395 366.926 242.065C366.688 242.733 366.342 243.243 365.891 243.595C365.439 243.945 364.892 244.119 364.25 244.119ZM364.25 243.182C364.886 243.182 365.381 242.875 365.733 242.261C366.085 241.648 366.261 240.773 366.261 239.636C366.261 238.881 366.18 238.237 366.018 237.706C365.859 237.175 365.629 236.77 365.328 236.491C365.03 236.213 364.67 236.074 364.25 236.074C363.619 236.074 363.126 236.385 362.771 237.007C362.416 237.626 362.239 238.503 362.239 239.636C362.239 240.392 362.318 241.034 362.477 241.562C362.636 242.091 362.865 242.493 363.163 242.768C363.464 243.044 363.827 243.182 364.25 243.182Z" fill="black"/>
<path d="M378 244H373" stroke="black" stroke-linecap="round"/>
<path d="M356.83 269.119C356.33 269.119 355.88 269.02 355.479 268.821C355.078 268.622 354.757 268.349 354.516 268.003C354.275 267.656 354.142 267.261 354.12 266.818H355.142C355.182 267.213 355.361 267.54 355.679 267.798C356 268.054 356.384 268.182 356.83 268.182C357.188 268.182 357.506 268.098 357.784 267.93C358.066 267.763 358.286 267.533 358.445 267.24C358.607 266.945 358.688 266.611 358.688 266.239C358.688 265.858 358.604 265.518 358.436 265.22C358.272 264.919 358.044 264.682 357.755 264.509C357.465 264.335 357.134 264.247 356.762 264.244C356.495 264.241 356.221 264.283 355.939 264.368C355.658 264.45 355.426 264.557 355.245 264.688L354.256 264.568L354.784 260.273H359.319V261.21H355.671L355.364 263.784H355.415C355.594 263.642 355.819 263.524 356.088 263.43C356.358 263.337 356.64 263.29 356.932 263.29C357.466 263.29 357.942 263.418 358.36 263.673C358.78 263.926 359.11 264.273 359.348 264.713C359.59 265.153 359.711 265.656 359.711 266.222C359.711 266.778 359.586 267.276 359.336 267.713C359.088 268.148 358.748 268.491 358.313 268.744C357.878 268.994 357.384 269.119 356.83 269.119ZM364.25 269.119C363.608 269.119 363.061 268.945 362.609 268.595C362.158 268.243 361.813 267.733 361.574 267.065C361.335 266.395 361.216 265.585 361.216 264.636C361.216 263.693 361.335 262.888 361.574 262.22C361.815 261.55 362.162 261.038 362.614 260.686C363.068 260.331 363.614 260.153 364.25 260.153C364.886 260.153 365.43 260.331 365.882 260.686C366.337 261.038 366.683 261.55 366.922 262.22C367.163 262.888 367.284 263.693 367.284 264.636C367.284 265.585 367.165 266.395 366.926 267.065C366.688 267.733 366.342 268.243 365.891 268.595C365.439 268.945 364.892 269.119 364.25 269.119ZM364.25 268.182C364.886 268.182 365.381 267.875 365.733 267.261C366.085 266.648 366.261 265.773 366.261 264.636C366.261 263.881 366.18 263.237 366.018 262.706C365.859 262.175 365.629 261.77 365.328 261.491C365.03 261.213 364.67 261.074 364.25 261.074C363.619 261.074 363.126 261.385 362.771 262.007C362.416 262.626 362.239 263.503 362.239 264.636C362.239 265.392 362.318 266.034 362.477 266.562C362.636 267.091 362.865 267.493 363.163 267.768C363.464 268.044 363.827 268.182 364.25 268.182Z" fill="black"/>
<path d="M378 269H373" stroke="black" stroke-linecap="round"/>
<path d="M353.5 292.21V291.341L357.335 285.273H357.966V286.619H357.539L354.642 291.205V291.273H359.806V292.21H353.5ZM357.608 294V291.946V291.541V285.273H358.613V294H357.608ZM364.25 294.119C363.608 294.119 363.061 293.945 362.609 293.595C362.158 293.243 361.813 292.733 361.574 292.065C361.335 291.395 361.216 290.585 361.216 289.636C361.216 288.693 361.335 287.888 361.574 287.22C361.815 286.55 362.162 286.038 362.614 285.686C363.068 285.331 363.614 285.153 364.25 285.153C364.886 285.153 365.43 285.331 365.882 285.686C366.337 286.038 366.683 286.55 366.922 287.22C367.163 287.888 367.284 288.693 367.284 289.636C367.284 290.585 367.165 291.395 366.926 292.065C366.688 292.733 366.342 293.243 365.891 293.595C365.439 293.945 364.892 294.119 364.25 294.119ZM364.25 293.182C364.886 293.182 365.381 292.875 365.733 292.261C366.085 291.648 366.261 290.773 366.261 289.636C366.261 288.881 366.18 288.237 366.018 287.706C365.859 287.175 365.629 286.77 365.328 286.491C365.03 286.213 364.67 286.074 364.25 286.074C363.619 286.074 363.126 286.385 362.771 287.007C362.416 287.626 362.239 288.503 362.239 289.636C362.239 290.392 362.318 291.034 362.477 291.562C362.636 292.091 362.865 292.493 363.163 292.768C363.464 293.044 363.827 293.182 364.25 293.182Z" fill="black"/>
<path d="M378 294H373" stroke="black" stroke-linecap="round"/>
<path d="M356.712 319.119C356.149 319.119 355.648 319.023 355.207 318.83C354.77 318.636 354.422 318.368 354.163 318.024C353.908 317.678 353.768 317.276 353.746 316.818H354.82C354.842 317.099 354.939 317.342 355.109 317.547C355.28 317.749 355.503 317.905 355.778 318.016C356.054 318.126 356.359 318.182 356.695 318.182C357.07 318.182 357.402 318.116 357.692 317.986C357.982 317.855 358.209 317.673 358.374 317.44C358.538 317.207 358.621 316.938 358.621 316.631C358.621 316.31 358.541 316.027 358.382 315.783C358.223 315.536 357.99 315.342 357.683 315.203C357.376 315.064 357.001 314.994 356.558 314.994H355.859V314.057H356.558C356.905 314.057 357.209 313.994 357.47 313.869C357.734 313.744 357.94 313.568 358.088 313.341C358.239 313.114 358.314 312.847 358.314 312.54C358.314 312.244 358.249 311.987 358.118 311.768C357.987 311.55 357.803 311.379 357.564 311.257C357.328 311.135 357.05 311.074 356.729 311.074C356.428 311.074 356.143 311.129 355.876 311.24C355.612 311.348 355.396 311.506 355.229 311.713C355.061 311.918 354.97 312.165 354.956 312.455H353.933C353.95 311.997 354.088 311.597 354.347 311.253C354.605 310.906 354.943 310.636 355.361 310.443C355.781 310.25 356.243 310.153 356.746 310.153C357.286 310.153 357.749 310.263 358.135 310.482C358.521 310.697 358.818 310.983 359.026 311.338C359.233 311.693 359.337 312.077 359.337 312.489C359.337 312.98 359.207 313.399 358.949 313.746C358.693 314.092 358.345 314.332 357.905 314.466V314.534C358.456 314.625 358.886 314.859 359.196 315.237C359.506 315.612 359.661 316.077 359.661 316.631C359.661 317.105 359.531 317.531 359.273 317.909C359.017 318.284 358.668 318.58 358.224 318.795C357.781 319.011 357.277 319.119 356.712 319.119ZM364.25 319.119C363.608 319.119 363.061 318.945 362.609 318.595C362.158 318.243 361.813 317.733 361.574 317.065C361.335 316.395 361.216 315.585 361.216 314.636C361.216 313.693 361.335 312.888 361.574 312.22C361.815 311.55 362.162 311.038 362.614 310.686C363.068 310.331 363.614 310.153 364.25 310.153C364.886 310.153 365.43 310.331 365.882 310.686C366.337 311.038 366.683 311.55 366.922 312.22C367.163 312.888 367.284 313.693 367.284 314.636C367.284 315.585 367.165 316.395 366.926 317.065C366.688 317.733 366.342 318.243 365.891 318.595C365.439 318.945 364.892 319.119 364.25 319.119ZM364.25 318.182C364.886 318.182 365.381 317.875 365.733 317.261C366.085 316.648 366.261 315.773 366.261 314.636C366.261 313.881 366.18 313.237 366.018 312.706C365.859 312.175 365.629 311.77 365.328 311.491C365.03 311.213 364.67 311.074 364.25 311.074C363.619 311.074 363.126 311.385 362.771 312.007C362.416 312.626 362.239 313.503 362.239 314.636C362.239 315.392 362.318 316.034 362.477 316.562C362.636 317.091 362.865 317.493 363.163 317.768C363.464 318.044 363.827 318.182 364.25 318.182Z" fill="black"/>
<path d="M378 319H373" stroke="black" stroke-linecap="round"/>
<path d="M354.138 344V343.233L357.018 340.08C357.357 339.71 357.635 339.389 357.854 339.116C358.072 338.841 358.234 338.582 358.339 338.341C358.447 338.097 358.501 337.841 358.501 337.574C358.501 337.267 358.428 337.001 358.28 336.777C358.135 336.553 357.936 336.379 357.683 336.257C357.43 336.135 357.146 336.074 356.831 336.074C356.496 336.074 356.203 336.143 355.953 336.283C355.706 336.419 355.514 336.611 355.378 336.858C355.244 337.105 355.178 337.395 355.178 337.727H354.172C354.172 337.216 354.29 336.767 354.526 336.381C354.761 335.994 355.082 335.693 355.489 335.477C355.898 335.261 356.357 335.153 356.865 335.153C357.376 335.153 357.83 335.261 358.224 335.477C358.619 335.693 358.929 335.984 359.153 336.351C359.378 336.717 359.49 337.125 359.49 337.574C359.49 337.895 359.432 338.209 359.315 338.516C359.202 338.82 359.003 339.159 358.719 339.534C358.438 339.906 358.047 340.361 357.547 340.898L355.587 342.994V343.062H359.643V344H354.138ZM364.25 344.119C363.608 344.119 363.061 343.945 362.609 343.595C362.158 343.243 361.813 342.733 361.574 342.065C361.335 341.395 361.216 340.585 361.216 339.636C361.216 338.693 361.335 337.888 361.574 337.22C361.815 336.55 362.162 336.038 362.614 335.686C363.068 335.331 363.614 335.153 364.25 335.153C364.886 335.153 365.43 335.331 365.882 335.686C366.337 336.038 366.683 336.55 366.922 337.22C367.163 337.888 367.284 338.693 367.284 339.636C367.284 340.585 367.165 341.395 366.926 342.065C366.688 342.733 366.342 343.243 365.891 343.595C365.439 343.945 364.892 344.119 364.25 344.119ZM364.25 343.182C364.886 343.182 365.381 342.875 365.733 342.261C366.085 341.648 366.261 340.773 366.261 339.636C366.261 338.881 366.18 338.237 366.018 337.706C365.859 337.175 365.629 336.77 365.328 336.491C365.03 336.213 364.67 336.074 364.25 336.074C363.619 336.074 363.126 336.385 362.771 337.007C362.416 337.626 362.239 338.503 362.239 339.636C362.239 340.392 362.318 341.034 362.477 341.562C362.636 342.091 362.865 342.493 363.163 342.768C363.464 343.044 363.827 343.182 364.25 343.182Z" fill="black"/>
<path d="M378 344H373" stroke="black" stroke-linecap="round"/>
<path d="M358.893 360.273V369H357.837V361.381H357.786L355.655 362.795V361.722L357.837 360.273H358.893ZM364.25 369.119C363.608 369.119 363.061 368.945 362.609 368.595C362.158 368.243 361.813 367.733 361.574 367.065C361.335 366.395 361.216 365.585 361.216 364.636C361.216 363.693 361.335 362.888 361.574 362.22C361.815 361.55 362.162 361.038 362.614 360.686C363.068 360.331 363.614 360.153 364.25 360.153C364.886 360.153 365.43 360.331 365.882 360.686C366.337 361.038 366.683 361.55 366.922 362.22C367.163 362.888 367.284 363.693 367.284 364.636C367.284 365.585 367.165 366.395 366.926 367.065C366.688 367.733 366.342 368.243 365.891 368.595C365.439 368.945 364.892 369.119 364.25 369.119ZM364.25 368.182C364.886 368.182 365.381 367.875 365.733 367.261C366.085 366.648 366.261 365.773 366.261 364.636C366.261 363.881 366.18 363.237 366.018 362.706C365.859 362.175 365.629 361.77 365.328 361.491C365.03 361.213 364.67 361.074 364.25 361.074C363.619 361.074 363.126 361.385 362.771 362.007C362.416 362.626 362.239 363.503 362.239 364.636C362.239 365.392 362.318 366.034 362.477 366.562C362.636 367.091 362.865 367.493 363.163 367.768C363.464 368.044 363.827 368.182 364.25 368.182Z" fill="black"/>
<path d="M378 369H373" stroke="black" stroke-linecap="round"/>
<path d="M364.25 394.119C363.608 394.119 363.061 393.945 362.609 393.595C362.158 393.243 361.813 392.733 361.574 392.065C361.335 391.395 361.216 390.585 361.216 389.636C361.216 388.693 361.335 387.888 361.574 387.22C361.815 386.55 362.162 386.038 362.614 385.686C363.068 385.331 363.614 385.153 364.25 385.153C364.886 385.153 365.43 385.331 365.882 385.686C366.337 386.038 366.683 386.55 366.922 387.22C367.163 387.888 367.284 388.693 367.284 389.636C367.284 390.585 367.165 391.395 366.926 392.065C366.688 392.733 366.342 393.243 365.891 393.595C365.439 393.945 364.892 394.119 364.25 394.119ZM364.25 393.182C364.886 393.182 365.381 392.875 365.733 392.261C366.085 391.648 366.261 390.773 366.261 389.636C366.261 388.881 366.18 388.237 366.018 387.706C365.859 387.175 365.629 386.77 365.328 386.491C365.03 386.213 364.67 386.074 364.25 386.074C363.619 386.074 363.126 386.385 362.771 387.007C362.416 387.626 362.239 388.503 362.239 389.636C362.239 390.392 362.318 391.034 362.477 391.562C362.636 392.091 362.865 392.493 363.163 392.768C363.464 393.044 363.827 393.182 364.25 393.182Z" fill="black"/>
<path d="M378 394H373" stroke="black" stroke-linecap="round"/>
<path d="M625.433 400.273V409H624.376V401.381H624.325L622.194 402.795V401.722L624.376 400.273H625.433ZM630.789 409.119C630.147 409.119 629.6 408.945 629.148 408.595C628.697 408.243 628.352 407.733 628.113 407.065C627.874 406.395 627.755 405.585 627.755 404.636C627.755 403.693 627.874 402.888 628.113 402.22C628.354 401.55 628.701 401.038 629.153 400.686C629.607 400.331 630.153 400.153 630.789 400.153C631.425 400.153 631.969 400.331 632.421 400.686C632.876 401.038 633.222 401.55 633.461 402.22C633.702 402.888 633.823 403.693 633.823 404.636C633.823 405.585 633.704 406.395 633.465 407.065C633.227 407.733 632.881 408.243 632.43 408.595C631.978 408.945 631.431 409.119 630.789 409.119ZM630.789 408.182C631.425 408.182 631.92 407.875 632.272 407.261C632.624 406.648 632.8 405.773 632.8 404.636C632.8 403.881 632.719 403.237 632.558 402.706C632.398 402.175 632.168 401.77 631.867 401.491C631.569 401.213 631.21 401.074 630.789 401.074C630.158 401.074 629.665 401.385 629.31 402.007C628.955 402.626 628.778 403.503 628.778 404.636C628.778 405.392 628.857 406.034 629.016 406.562C629.175 407.091 629.404 407.493 629.702 407.768C630.004 408.044 630.366 408.182 630.789 408.182Z" fill="black"/>
<path d="M628 394V144" stroke="#DDDDDD" stroke-linecap="round"/>
<path d="M628 394V399" stroke="black" stroke-linecap="round"/>
<path d="M602.938 400.153C603.296 400.156 603.654 400.224 604.012 400.358C604.369 400.491 604.696 400.713 604.992 401.023C605.287 401.33 605.524 401.749 605.703 402.28C605.882 402.811 605.972 403.477 605.972 404.278C605.972 405.054 605.898 405.743 605.75 406.345C605.605 406.945 605.395 407.45 605.119 407.862C604.847 408.274 604.514 408.587 604.122 408.8C603.733 409.013 603.293 409.119 602.801 409.119C602.313 409.119 601.877 409.023 601.493 408.83C601.112 408.634 600.8 408.362 600.556 408.016C600.314 407.666 600.159 407.261 600.091 406.801H601.131C601.225 407.202 601.411 407.533 601.689 407.794C601.97 408.053 602.341 408.182 602.801 408.182C603.475 408.182 604.006 407.888 604.395 407.3C604.787 406.712 604.983 405.881 604.983 404.807H604.915C604.756 405.045 604.567 405.251 604.348 405.425C604.129 405.598 603.887 405.732 603.619 405.825C603.352 405.919 603.068 405.966 602.767 405.966C602.267 405.966 601.808 405.842 601.391 405.595C600.976 405.345 600.644 405.003 600.394 404.568C600.146 404.131 600.023 403.631 600.023 403.068C600.023 402.534 600.142 402.045 600.381 401.602C600.622 401.156 600.96 400.801 601.395 400.537C601.833 400.273 602.347 400.145 602.938 400.153ZM602.938 401.091C602.58 401.091 602.257 401.18 601.97 401.359C601.686 401.536 601.46 401.774 601.293 402.075C601.128 402.374 601.046 402.705 601.046 403.068C601.046 403.432 601.125 403.763 601.284 404.061C601.446 404.357 601.666 404.592 601.945 404.768C602.226 404.942 602.546 405.028 602.904 405.028C603.173 405.028 603.425 404.976 603.658 404.871C603.891 404.763 604.094 404.616 604.267 404.432C604.443 404.244 604.581 404.033 604.681 403.797C604.78 403.558 604.83 403.31 604.83 403.051C604.83 402.71 604.747 402.391 604.583 402.092C604.421 401.794 604.196 401.553 603.909 401.368C603.625 401.183 603.301 401.091 602.938 401.091Z" fill="black"/>
<path d="M603 394V144" stroke="#DDDDDD" stroke-linecap="round"/>
<path d="M603 394V399" stroke="black" stroke-linecap="round"/>
<path d="M578.002 409.119C577.416 409.119 576.899 409.016 576.45 408.808C576.004 408.598 575.656 408.31 575.406 407.943C575.156 407.574 575.033 407.153 575.036 406.682C575.033 406.312 575.105 405.972 575.253 405.659C575.401 405.344 575.602 405.081 575.858 404.871C576.117 404.658 576.405 404.523 576.723 404.466V404.415C576.306 404.307 575.973 404.072 575.726 403.712C575.479 403.348 575.357 402.935 575.36 402.472C575.357 402.028 575.469 401.632 575.696 401.283C575.923 400.933 576.236 400.658 576.634 400.456C577.034 400.254 577.49 400.153 578.002 400.153C578.507 400.153 578.959 400.254 579.357 400.456C579.754 400.658 580.067 400.933 580.294 401.283C580.524 401.632 580.641 402.028 580.644 402.472C580.641 402.935 580.514 403.348 580.264 403.712C580.017 404.072 579.689 404.307 579.28 404.415V404.466C579.595 404.523 579.879 404.658 580.132 404.871C580.385 405.081 580.587 405.344 580.737 405.659C580.888 405.972 580.965 406.312 580.968 406.682C580.965 407.153 580.837 407.574 580.584 407.943C580.334 408.31 579.986 408.598 579.54 408.808C579.097 409.016 578.584 409.119 578.002 409.119ZM578.002 408.182C578.396 408.182 578.737 408.118 579.024 407.99C579.311 407.862 579.533 407.682 579.689 407.449C579.845 407.216 579.925 406.943 579.928 406.631C579.925 406.301 579.84 406.01 579.672 405.757C579.504 405.504 579.276 405.305 578.986 405.161C578.699 405.016 578.371 404.943 578.002 404.943C577.629 404.943 577.297 405.016 577.004 405.161C576.715 405.305 576.486 405.504 576.318 405.757C576.154 406.01 576.073 406.301 576.075 406.631C576.073 406.943 576.148 407.216 576.301 407.449C576.458 407.682 576.681 407.862 576.97 407.99C577.26 408.118 577.604 408.182 578.002 408.182ZM578.002 404.04C578.314 404.04 578.591 403.977 578.833 403.852C579.077 403.727 579.269 403.553 579.408 403.328C579.547 403.104 579.618 402.841 579.621 402.54C579.618 402.244 579.548 401.987 579.412 401.768C579.276 401.547 579.087 401.376 578.845 401.257C578.604 401.135 578.323 401.074 578.002 401.074C577.675 401.074 577.389 401.135 577.145 401.257C576.901 401.376 576.712 401.547 576.578 401.768C576.445 401.987 576.379 402.244 576.382 402.54C576.379 402.841 576.446 403.104 576.583 403.328C576.722 403.553 576.914 403.727 577.158 403.852C577.402 403.977 577.683 404.04 578.002 404.04Z" fill="black"/>
<path d="M578 394V144" stroke="#DDDDDD" stroke-linecap="round"/>
<path d="M578 394V399" stroke="black" stroke-linecap="round"/>
<path d="M550.748 409L554.652 401.278V401.21H550.152V400.273H555.743V401.261L551.856 409H550.748Z" fill="black"/>
<path d="M553 394V144" stroke="#DDDDDD" stroke-linecap="round"/>
<path d="M553 394V399" stroke="black" stroke-linecap="round"/>
<path d="M528.057 409.119C527.699 409.114 527.341 409.045 526.983 408.915C526.625 408.784 526.298 408.564 526.003 408.254C525.708 407.942 525.47 407.52 525.291 406.989C525.112 406.455 525.023 405.784 525.023 404.977C525.023 404.205 525.095 403.52 525.24 402.923C525.385 402.324 525.595 401.82 525.871 401.411C526.146 400.999 526.479 400.686 526.868 400.473C527.26 400.26 527.702 400.153 528.193 400.153C528.682 400.153 529.117 400.251 529.497 400.447C529.881 400.641 530.193 400.911 530.435 401.257C530.676 401.604 530.833 402.003 530.904 402.455H529.864C529.767 402.062 529.58 401.737 529.301 401.479C529.023 401.22 528.654 401.091 528.193 401.091C527.517 401.091 526.985 401.385 526.595 401.973C526.209 402.561 526.014 403.386 526.012 404.449H526.08C526.239 404.207 526.428 404.001 526.646 403.831C526.868 403.658 527.112 403.524 527.379 403.43C527.646 403.337 527.929 403.29 528.227 403.29C528.727 403.29 529.185 403.415 529.6 403.665C530.014 403.912 530.347 404.254 530.597 404.692C530.847 405.126 530.972 405.625 530.972 406.188C530.972 406.727 530.851 407.222 530.61 407.67C530.368 408.116 530.029 408.472 529.591 408.736C529.156 408.997 528.645 409.125 528.057 409.119ZM528.057 408.182C528.415 408.182 528.736 408.092 529.02 407.913C529.307 407.734 529.533 407.494 529.698 407.193C529.865 406.892 529.949 406.557 529.949 406.188C529.949 405.827 529.868 405.499 529.706 405.203C529.547 404.905 529.327 404.668 529.046 404.491C528.767 404.315 528.449 404.227 528.091 404.227C527.821 404.227 527.57 404.281 527.337 404.389C527.104 404.494 526.899 404.639 526.723 404.824C526.55 405.009 526.414 405.22 526.314 405.459C526.215 405.695 526.165 405.943 526.165 406.205C526.165 406.551 526.246 406.875 526.408 407.176C526.573 407.477 526.797 407.72 527.081 407.905C527.368 408.089 527.693 408.182 528.057 408.182Z" fill="black"/>
<path d="M528 394V144" stroke="#DDDDDD" stroke-linecap="round"/>
<path d="M528 394V399" stroke="black" stroke-linecap="round"/>
<path d="M502.98 409.119C502.48 409.119 502.03 409.02 501.629 408.821C501.229 408.622 500.908 408.349 500.666 408.003C500.425 407.656 500.293 407.261 500.27 406.818H501.293C501.333 407.213 501.512 407.54 501.83 407.798C502.151 408.054 502.534 408.182 502.98 408.182C503.338 408.182 503.656 408.098 503.935 407.93C504.216 407.763 504.436 407.533 504.595 407.24C504.757 406.945 504.838 406.611 504.838 406.239C504.838 405.858 504.754 405.518 504.587 405.22C504.422 404.919 504.195 404.682 503.905 404.509C503.615 404.335 503.284 404.247 502.912 404.244C502.645 404.241 502.371 404.283 502.09 404.368C501.808 404.45 501.577 404.557 501.395 404.688L500.406 404.568L500.935 400.273H505.469V401.21H501.821L501.514 403.784H501.566C501.744 403.642 501.969 403.524 502.239 403.43C502.509 403.337 502.79 403.29 503.083 403.29C503.617 403.29 504.093 403.418 504.51 403.673C504.931 403.926 505.26 404.273 505.499 404.713C505.74 405.153 505.861 405.656 505.861 406.222C505.861 406.778 505.736 407.276 505.486 407.713C505.239 408.148 504.898 408.491 504.463 408.744C504.029 408.994 503.534 409.119 502.98 409.119Z" fill="black"/>
<path d="M503 394V144" stroke="#DDDDDD" stroke-linecap="round"/>
<path d="M503 394V399" stroke="black" stroke-linecap="round"/>
<path d="M474.849 407.21V406.341L478.684 400.273H479.315V401.619H478.889L475.991 406.205V406.273H481.156V407.21H474.849ZM478.957 409V406.946V406.541V400.273H479.963V409H478.957Z" fill="black"/>
<path d="M478 394V144" stroke="#DDDDDD" stroke-linecap="round"/>
<path d="M478 394V399" stroke="black" stroke-linecap="round"/>
<path d="M453.032 409.119C452.469 409.119 451.968 409.023 451.528 408.83C451.09 408.636 450.742 408.368 450.484 408.024C450.228 407.678 450.089 407.276 450.066 406.818H451.14C451.163 407.099 451.259 407.342 451.43 407.547C451.6 407.749 451.823 407.905 452.099 408.016C452.374 408.126 452.68 408.182 453.015 408.182C453.39 408.182 453.722 408.116 454.012 407.986C454.302 407.855 454.529 407.673 454.694 407.44C454.859 407.207 454.941 406.938 454.941 406.631C454.941 406.31 454.862 406.027 454.702 405.783C454.543 405.536 454.31 405.342 454.004 405.203C453.697 405.064 453.322 404.994 452.879 404.994H452.18V404.057H452.879C453.225 404.057 453.529 403.994 453.79 403.869C454.055 403.744 454.261 403.568 454.408 403.341C454.559 403.114 454.634 402.847 454.634 402.54C454.634 402.244 454.569 401.987 454.438 401.768C454.308 401.55 454.123 401.379 453.884 401.257C453.648 401.135 453.37 401.074 453.049 401.074C452.748 401.074 452.464 401.129 452.197 401.24C451.933 401.348 451.717 401.506 451.549 401.713C451.381 401.918 451.29 402.165 451.276 402.455H450.254C450.271 401.997 450.408 401.597 450.667 401.253C450.925 400.906 451.263 400.636 451.681 400.443C452.102 400.25 452.563 400.153 453.066 400.153C453.606 400.153 454.069 400.263 454.455 400.482C454.842 400.697 455.138 400.983 455.346 401.338C455.553 401.693 455.657 402.077 455.657 402.489C455.657 402.98 455.528 403.399 455.269 403.746C455.013 404.092 454.665 404.332 454.225 404.466V404.534C454.776 404.625 455.207 404.859 455.516 405.237C455.826 405.612 455.981 406.077 455.981 406.631C455.981 407.105 455.852 407.531 455.593 407.909C455.337 408.284 454.988 408.58 454.545 408.795C454.102 409.011 453.597 409.119 453.032 409.119Z" fill="black"/>
<path d="M453 394V144" stroke="#DDDDDD" stroke-linecap="round"/>
<path d="M453 394V399" stroke="black" stroke-linecap="round"/>
<path d="M425.271 409V408.233L428.151 405.08C428.489 404.71 428.768 404.389 428.987 404.116C429.205 403.841 429.367 403.582 429.472 403.341C429.58 403.097 429.634 402.841 429.634 402.574C429.634 402.267 429.56 402.001 429.413 401.777C429.268 401.553 429.069 401.379 428.816 401.257C428.563 401.135 428.279 401.074 427.964 401.074C427.629 401.074 427.336 401.143 427.086 401.283C426.839 401.419 426.647 401.611 426.511 401.858C426.377 402.105 426.31 402.395 426.31 402.727H425.305C425.305 402.216 425.423 401.767 425.658 401.381C425.894 400.994 426.215 400.693 426.621 400.477C427.031 400.261 427.489 400.153 427.998 400.153C428.509 400.153 428.962 400.261 429.357 400.477C429.752 400.693 430.062 400.984 430.286 401.351C430.511 401.717 430.623 402.125 430.623 402.574C430.623 402.895 430.565 403.209 430.448 403.516C430.335 403.82 430.136 404.159 429.852 404.534C429.57 404.906 429.18 405.361 428.68 405.898L426.719 407.994V408.062H430.776V409H425.271Z" fill="black"/>
<path d="M428 394V144" stroke="#DDDDDD" stroke-linecap="round"/>
<path d="M428 394V399" stroke="black" stroke-linecap="round"/>
<path d="M404.183 400.273V409H403.126V401.381H403.075L400.944 402.795V401.722L403.126 400.273H404.183Z" fill="black"/>
<path d="M403 394V144" stroke="#DDDDDD" stroke-linecap="round"/>
<path d="M403 394V399" stroke="black" stroke-linecap="round"/>
<path d="M378 409.119C377.358 409.119 376.811 408.945 376.359 408.595C375.908 408.243 375.563 407.733 375.324 407.065C375.085 406.395 374.966 405.585 374.966 404.636C374.966 403.693 375.085 402.888 375.324 402.22C375.565 401.55 375.912 401.038 376.364 400.686C376.818 400.331 377.364 400.153 378 400.153C378.636 400.153 379.18 400.331 379.632 400.686C380.087 401.038 380.433 401.55 380.672 402.22C380.913 402.888 381.034 403.693 381.034 404.636C381.034 405.585 380.915 406.395 380.676 407.065C380.438 407.733 380.092 408.243 379.641 408.595C379.189 408.945 378.642 409.119 378 409.119ZM378 408.182C378.636 408.182 379.131 407.875 379.483 407.261C379.835 406.648 380.011 405.773 380.011 404.636C380.011 403.881 379.93 403.237 379.768 402.706C379.609 402.175 379.379 401.77 379.078 401.491C378.78 401.213 378.42 401.074 378 401.074C377.369 401.074 376.876 401.385 376.521 402.007C376.166 402.626 375.989 403.503 375.989 404.636C375.989 405.392 376.068 406.034 376.227 406.562C376.386 407.091 376.615 407.493 376.913 407.768C377.214 408.044 377.577 408.182 378 408.182Z" fill="black"/>
<path d="M378 394V144" stroke="#DDDDDD" stroke-linecap="round"/>
<path d="M378 394V399" stroke="black" stroke-linecap="round"/>
<path d="M378 394H628" stroke="black" stroke-linecap="round"/>
<path d="M378 144V394" stroke="black" stroke-linecap="round"/>
<path d="M454 265.078C453.91 264.958 453.813 264.828 453.711 264.689C453.063 263.809 452.2 262.597 451.339 261.269C450.476 259.938 449.626 258.508 448.996 257.189C448.349 255.832 448 254.727 448 254C448 250.686 450.686 248 454 248C457.314 248 460 250.686 460 254C460 254.727 459.651 255.832 459.004 257.189C458.374 258.508 457.524 259.938 456.661 261.269C455.8 262.597 454.937 263.809 454.289 264.689C454.187 264.828 454.09 264.958 454 265.078Z" fill="#4C86F6"/>
<path d="M454 265.078C453.91 264.958 453.813 264.828 453.711 264.689C453.063 263.809 452.2 262.597 451.339 261.269C450.476 259.938 449.626 258.508 448.996 257.189C448.349 255.832 448 254.727 448 254C448 250.686 450.686 248 454 248C457.314 248 460 250.686 460 254C460 254.727 459.651 255.832 459.004 257.189C458.374 258.508 457.524 259.938 456.661 261.269C455.8 262.597 454.937 263.809 454.289 264.689C454.187 264.828 454.09 264.958 454 265.078Z" stroke="black" stroke-width="2"/>
<path d="M454 265.078C453.91 264.958 453.813 264.828 453.711 264.689C453.063 263.809 452.2 262.597 451.339 261.269C450.476 259.938 449.626 258.508 448.996 257.189C448.349 255.832 448 254.727 448 254C448 250.686 450.686 248 454 248C457.314 248 460 250.686 460 254C460 254.727 459.651 255.832 459.004 257.189C458.374 258.508 457.524 259.938 456.661 261.269C455.8 262.597 454.937 263.809 454.289 264.689C454.187 264.828 454.09 264.958 454 265.078Z" stroke="#FF0000" stroke-width="2"/>
<g clip-path="url(#clip0_0_1)">
<path d="M3.39347 133.273V142H2.33665V134.381H2.28551L0.15483 135.795V134.722L2.33665 133.273H3.39347ZM8.75 142.119C8.10795 142.119 7.56108 141.945 7.10938 141.595C6.65767 141.243 6.3125 140.733 6.07386 140.065C5.83523 139.395 5.71591 138.585 5.71591 137.636C5.71591 136.693 5.83523 135.888 6.07386 135.22C6.31534 134.55 6.66193 134.038 7.11364 133.686C7.56818 133.331 8.11364 133.153 8.75 133.153C9.38636 133.153 9.9304 133.331 10.3821 133.686C10.8366 134.038 11.1832 134.55 11.4219 135.22C11.6634 135.888 11.7841 136.693 11.7841 137.636C11.7841 138.585 11.6648 139.395 11.4261 140.065C11.1875 140.733 10.8423 141.243 10.3906 141.595C9.93892 141.945 9.39205 142.119 8.75 142.119ZM8.75 141.182C9.38636 141.182 9.88068 140.875 10.233 140.261C10.5852 139.648 10.7614 138.773 10.7614 137.636C10.7614 136.881 10.6804 136.237 10.5185 135.706C10.3594 135.175 10.1293 134.77 9.82812 134.491C9.52983 134.213 9.17045 134.074 8.75 134.074C8.11932 134.074 7.62642 134.385 7.27131 135.007C6.91619 135.626 6.73864 136.503 6.73864 137.636C6.73864 138.392 6.81818 139.034 6.97727 139.562C7.13636 140.091 7.36506 140.493 7.66335 140.768C7.96449 141.044 8.3267 141.182 8.75 141.182ZM16.25 142.119C15.608 142.119 15.0611 141.945 14.6094 141.595C14.1577 141.243 13.8125 140.733 13.5739 140.065C13.3352 139.395 13.2159 138.585 13.2159 137.636C13.2159 136.693 13.3352 135.888 13.5739 135.22C13.8153 134.55 14.1619 134.038 14.6136 133.686C15.0682 133.331 15.6136 133.153 16.25 133.153C16.8864 133.153 17.4304 133.331 17.8821 133.686C18.3366 134.038 18.6832 134.55 18.9219 135.22C19.1634 135.888 19.2841 136.693 19.2841 137.636C19.2841 138.585 19.1648 139.395 18.9261 140.065C18.6875 140.733 18.3423 141.243 17.8906 141.595C17.4389 141.945 16.892 142.119 16.25 142.119ZM16.25 141.182C16.8864 141.182 17.3807 140.875 17.733 140.261C18.0852 139.648 18.2614 138.773 18.2614 137.636C18.2614 136.881 18.1804 136.237 18.0185 135.706C17.8594 135.175 17.6293 134.77 17.3281 134.491C17.0298 134.213 16.6705 134.074 16.25 134.074C15.6193 134.074 15.1264 134.385 14.7713 135.007C14.4162 135.626 14.2386 136.503 14.2386 137.636C14.2386 138.392 14.3182 139.034 14.4773 139.562C14.6364 140.091 14.8651 140.493 15.1634 140.768C15.4645 141.044 15.8267 141.182 16.25 141.182Z" fill="black"/>
<path d="M30 142H25" stroke="black" stroke-linecap="round"/>
<path d="M8.69354 158.153C9.05149 158.156 9.40945 158.224 9.7674 158.358C10.1254 158.491 10.4521 158.713 10.7475 159.023C11.043 159.33 11.2802 159.749 11.4592 160.28C11.6381 160.811 11.7276 161.477 11.7276 162.278C11.7276 163.054 11.6538 163.743 11.506 164.345C11.3612 164.945 11.1509 165.45 10.8754 165.862C10.6026 166.274 10.2702 166.587 9.8782 166.8C9.48899 167.013 9.04865 167.119 8.55717 167.119C8.06854 167.119 7.63246 167.023 7.24893 166.83C6.86825 166.634 6.55575 166.362 6.31143 166.016C6.06996 165.666 5.91513 165.261 5.84695 164.801H6.88672C6.98047 165.202 7.16655 165.533 7.44496 165.794C7.72621 166.053 8.09695 166.182 8.55717 166.182C9.23047 166.182 9.76172 165.888 10.1509 165.3C10.543 164.712 10.739 163.881 10.739 162.807H10.6708C10.5117 163.045 10.3228 163.251 10.104 163.425C9.8853 163.598 9.6424 163.732 9.37536 163.825C9.10831 163.919 8.82422 163.966 8.52308 163.966C8.02308 163.966 7.56428 163.842 7.14666 163.595C6.73189 163.345 6.3995 163.003 6.1495 162.568C5.90234 162.131 5.77876 161.631 5.77876 161.068C5.77876 160.534 5.89808 160.045 6.13672 159.602C6.3782 159.156 6.71626 158.801 7.15092 158.537C7.58842 158.273 8.10263 158.145 8.69354 158.153ZM8.69354 159.091C8.33558 159.091 8.01314 159.18 7.72621 159.359C7.44212 159.536 7.21626 159.774 7.04865 160.075C6.88388 160.374 6.80149 160.705 6.80149 161.068C6.80149 161.432 6.88104 161.763 7.04013 162.061C7.20206 162.357 7.42223 162.592 7.70064 162.768C7.98189 162.942 8.30149 163.028 8.65945 163.028C8.92933 163.028 9.18075 162.976 9.41371 162.871C9.64666 162.763 9.84979 162.616 10.0231 162.432C10.1992 162.244 10.337 162.033 10.4364 161.797C10.5359 161.558 10.5856 161.31 10.5856 161.051C10.5856 160.71 10.5032 160.391 10.3384 160.092C10.1765 159.794 9.95206 159.553 9.66513 159.368C9.38104 159.183 9.05717 159.091 8.69354 159.091ZM16.25 167.119C15.608 167.119 15.0611 166.945 14.6094 166.595C14.1577 166.243 13.8125 165.733 13.5739 165.065C13.3352 164.395 13.2159 163.585 13.2159 162.636C13.2159 161.693 13.3352 160.888 13.5739 160.22C13.8153 159.55 14.1619 159.038 14.6136 158.686C15.0682 158.331 15.6136 158.153 16.25 158.153C16.8864 158.153 17.4304 158.331 17.8821 158.686C18.3366 159.038 18.6832 159.55 18.9219 160.22C19.1634 160.888 19.2841 161.693 19.2841 162.636C19.2841 163.585 19.1648 164.395 18.9261 165.065C18.6875 165.733 18.3423 166.243 17.8906 166.595C17.4389 166.945 16.892 167.119 16.25 167.119ZM16.25 166.182C16.8864 166.182 17.3807 165.875 17.733 165.261C18.0852 164.648 18.2614 163.773 18.2614 162.636C18.2614 161.881 18.1804 161.237 18.0185 160.706C17.8594 160.175 17.6293 159.77 17.3281 159.491C17.0298 159.213 16.6705 159.074 16.25 159.074C15.6193 159.074 15.1264 159.385 14.7713 160.007C14.4162 160.626 14.2386 161.503 14.2386 162.636C14.2386 163.392 14.3182 164.034 14.4773 164.562C14.6364 165.091 14.8651 165.493 15.1634 165.768C15.4645 166.044 15.8267 166.182 16.25 166.182Z" fill="black"/>
<path d="M30 167H25" stroke="black" stroke-linecap="round"/>
<path d="M8.80433 192.119C8.21911 192.119 7.70206 192.016 7.2532 191.808C6.80717 191.598 6.45916 191.31 6.20916 190.943C5.95916 190.574 5.83558 190.153 5.83842 189.682C5.83558 189.312 5.90803 188.972 6.05575 188.659C6.20348 188.344 6.40518 188.081 6.66087 187.871C6.91939 187.658 7.20774 187.523 7.52592 187.466V187.415C7.10831 187.307 6.77592 187.072 6.52876 186.712C6.28161 186.348 6.15945 185.935 6.16229 185.472C6.15945 185.028 6.27166 184.632 6.49893 184.283C6.72621 183.933 7.03871 183.658 7.43643 183.456C7.837 183.254 8.29297 183.153 8.80433 183.153C9.31001 183.153 9.76172 183.254 10.1594 183.456C10.5572 183.658 10.8697 183.933 11.0969 184.283C11.3271 184.632 11.4435 185.028 11.4464 185.472C11.4435 185.935 11.3171 186.348 11.0671 186.712C10.82 187.072 10.4918 187.307 10.0827 187.415V187.466C10.3981 187.523 10.6822 187.658 10.935 187.871C11.1879 188.081 11.3896 188.344 11.5401 188.659C11.6907 188.972 11.7674 189.312 11.7702 189.682C11.7674 190.153 11.6396 190.574 11.3867 190.943C11.1367 191.31 10.7887 191.598 10.3427 191.808C9.8995 192.016 9.38672 192.119 8.80433 192.119ZM8.80433 191.182C9.19922 191.182 9.54013 191.118 9.82706 190.99C10.114 190.862 10.3356 190.682 10.4918 190.449C10.6481 190.216 10.7276 189.943 10.7305 189.631C10.7276 189.301 10.6424 189.01 10.4748 188.757C10.3072 188.504 10.0785 188.305 9.78871 188.161C9.50178 188.016 9.17365 187.943 8.80433 187.943C8.43217 187.943 8.09979 188.016 7.80717 188.161C7.5174 188.305 7.28871 188.504 7.12109 188.757C6.95632 189.01 6.87536 189.301 6.8782 189.631C6.87536 189.943 6.95064 190.216 7.10405 190.449C7.2603 190.682 7.48331 190.862 7.77308 190.99C8.06286 191.118 8.40661 191.182 8.80433 191.182ZM8.80433 187.04C9.11683 187.04 9.39382 186.977 9.6353 186.852C9.87962 186.727 10.0714 186.553 10.2106 186.328C10.3498 186.104 10.4208 185.841 10.4237 185.54C10.4208 185.244 10.3512 184.987 10.2148 184.768C10.0785 184.547 9.88956 184.376 9.64808 184.257C9.40661 184.135 9.12536 184.074 8.80433 184.074C8.47763 184.074 8.19212 184.135 7.9478 184.257C7.70348 184.376 7.51456 184.547 7.38104 184.768C7.24751 184.987 7.18217 185.244 7.18501 185.54C7.18217 185.841 7.24893 186.104 7.3853 186.328C7.5245 186.553 7.71626 186.727 7.96058 186.852C8.2049 186.977 8.48615 187.04 8.80433 187.04ZM16.25 192.119C15.608 192.119 15.0611 191.945 14.6094 191.595C14.1577 191.243 13.8125 190.733 13.5739 190.065C13.3352 189.395 13.2159 188.585 13.2159 187.636C13.2159 186.693 13.3352 185.888 13.5739 185.22C13.8153 184.55 14.1619 184.038 14.6136 183.686C15.0682 183.331 15.6136 183.153 16.25 183.153C16.8864 183.153 17.4304 183.331 17.8821 183.686C18.3366 184.038 18.6832 184.55 18.9219 185.22C19.1634 185.888 19.2841 186.693 19.2841 187.636C19.2841 188.585 19.1648 189.395 18.9261 190.065C18.6875 190.733 18.3423 191.243 17.8906 191.595C17.4389 191.945 16.892 192.119 16.25 192.119ZM16.25 191.182C16.8864 191.182 17.3807 190.875 17.733 190.261C18.0852 189.648 18.2614 188.773 18.2614 187.636C18.2614 186.881 18.1804 186.237 18.0185 185.706C17.8594 185.175 17.6293 184.77 17.3281 184.491C17.0298 184.213 16.6705 184.074 16.25 184.074C15.6193 184.074 15.1264 184.385 14.7713 185.007C14.4162 185.626 14.2386 186.503 14.2386 187.636C14.2386 188.392 14.3182 189.034 14.4773 189.562C14.6364 190.091 14.8651 190.493 15.1634 190.768C15.4645 191.044 15.8267 191.182 16.25 191.182Z" fill="black"/>
<path d="M30 192H25" stroke="black" stroke-linecap="round"/>
<path d="M7.00817 217L10.9116 209.278V209.21H6.41158V208.273H12.0025V209.261L8.11612 217H7.00817ZM16.25 217.119C15.608 217.119 15.0611 216.945 14.6094 216.595C14.1577 216.243 13.8125 215.733 13.5739 215.065C13.3352 214.395 13.2159 213.585 13.2159 212.636C13.2159 211.693 13.3352 210.888 13.5739 210.22C13.8153 209.55 14.1619 209.038 14.6136 208.686C15.0682 208.331 15.6136 208.153 16.25 208.153C16.8864 208.153 17.4304 208.331 17.8821 208.686C18.3366 209.038 18.6832 209.55 18.9219 210.22C19.1634 210.888 19.2841 211.693 19.2841 212.636C19.2841 213.585 19.1648 214.395 18.9261 215.065C18.6875 215.733 18.3423 216.243 17.8906 216.595C17.4389 216.945 16.892 217.119 16.25 217.119ZM16.25 216.182C16.8864 216.182 17.3807 215.875 17.733 215.261C18.0852 214.648 18.2614 213.773 18.2614 212.636C18.2614 211.881 18.1804 211.237 18.0185 210.706C17.8594 210.175 17.6293 209.77 17.3281 209.491C17.0298 209.213 16.6705 209.074 16.25 209.074C15.6193 209.074 15.1264 209.385 14.7713 210.007C14.4162 210.626 14.2386 211.503 14.2386 212.636C14.2386 213.392 14.3182 214.034 14.4773 214.562C14.6364 215.091 14.8651 215.493 15.1634 215.768C15.4645 216.044 15.8267 216.182 16.25 216.182Z" fill="black"/>
<path d="M30 217H25" stroke="black" stroke-linecap="round"/>
<path d="M8.81286 242.119C8.4549 242.114 8.09695 242.045 7.73899 241.915C7.38104 241.784 7.05433 241.564 6.75888 241.254C6.46342 240.942 6.22621 240.52 6.04723 239.989C5.86825 239.455 5.77876 238.784 5.77876 237.977C5.77876 237.205 5.85121 236.52 5.99609 235.923C6.14098 235.324 6.35121 234.82 6.62678 234.411C6.90234 233.999 7.23473 233.686 7.62393 233.473C8.01598 233.26 8.45774 233.153 8.94922 233.153C9.43786 233.153 9.87251 233.251 10.2532 233.447C10.6367 233.641 10.9492 233.911 11.1907 234.257C11.4322 234.604 11.5884 235.003 11.6594 235.455H10.6197C10.5231 235.062 10.3356 234.737 10.0572 234.479C9.77876 234.22 9.40945 234.091 8.94922 234.091C8.27308 234.091 7.74041 234.385 7.35121 234.973C6.96484 235.561 6.77024 236.386 6.7674 237.449H6.83558C6.99467 237.207 7.18359 237.001 7.40234 236.831C7.62393 236.658 7.86825 236.524 8.1353 236.43C8.40234 236.337 8.68501 236.29 8.98331 236.29C9.48331 236.29 9.9407 236.415 10.3555 236.665C10.7702 236.912 11.1026 237.254 11.3526 237.692C11.6026 238.126 11.7276 238.625 11.7276 239.188C11.7276 239.727 11.6069 240.222 11.3654 240.67C11.1239 241.116 10.7844 241.472 10.3469 241.736C9.91229 241.997 9.40092 242.125 8.81286 242.119ZM8.81286 241.182C9.17081 241.182 9.49183 241.092 9.77592 240.913C10.0629 240.734 10.2887 240.494 10.4535 240.193C10.6211 239.892 10.7049 239.557 10.7049 239.188C10.7049 238.827 10.6239 238.499 10.462 238.203C10.3029 237.905 10.0827 237.668 9.80149 237.491C9.52308 237.315 9.2049 237.227 8.84695 237.227C8.57706 237.227 8.32564 237.281 8.09268 237.389C7.85973 237.494 7.65518 237.639 7.47905 237.824C7.30575 238.009 7.16939 238.22 7.06996 238.459C6.97053 238.695 6.92081 238.943 6.92081 239.205C6.92081 239.551 7.00178 239.875 7.16371 240.176C7.32848 240.477 7.55291 240.72 7.837 240.905C8.12393 241.089 8.44922 241.182 8.81286 241.182ZM16.25 242.119C15.608 242.119 15.0611 241.945 14.6094 241.595C14.1577 241.243 13.8125 240.733 13.5739 240.065C13.3352 239.395 13.2159 238.585 13.2159 237.636C13.2159 236.693 13.3352 235.888 13.5739 235.22C13.8153 234.55 14.1619 234.038 14.6136 233.686C15.0682 233.331 15.6136 233.153 16.25 233.153C16.8864 233.153 17.4304 233.331 17.8821 233.686C18.3366 234.038 18.6832 234.55 18.9219 235.22C19.1634 235.888 19.2841 236.693 19.2841 237.636C19.2841 238.585 19.1648 239.395 18.9261 240.065C18.6875 240.733 18.3423 241.243 17.8906 241.595C17.4389 241.945 16.892 242.119 16.25 242.119ZM16.25 241.182C16.8864 241.182 17.3807 240.875 17.733 240.261C18.0852 239.648 18.2614 238.773 18.2614 237.636C18.2614 236.881 18.1804 236.237 18.0185 235.706C17.8594 235.175 17.6293 234.77 17.3281 234.491C17.0298 234.213 16.6705 234.074 16.25 234.074C15.6193 234.074 15.1264 234.385 14.7713 235.007C14.4162 235.626 14.2386 236.503 14.2386 237.636C14.2386 238.392 14.3182 239.034 14.4773 239.562C14.6364 240.091 14.8651 240.493 15.1634 240.768C15.4645 241.044 15.8267 241.182 16.25 241.182Z" fill="black"/>
<path d="M30 242H25" stroke="black" stroke-linecap="round"/>
<path d="M8.8299 267.119C8.3299 267.119 7.87962 267.02 7.47905 266.821C7.07848 266.622 6.75746 266.349 6.51598 266.003C6.2745 265.656 6.1424 265.261 6.11967 264.818H7.1424C7.18217 265.213 7.36115 265.54 7.67933 265.798C8.00036 266.054 8.38388 266.182 8.8299 266.182C9.18786 266.182 9.50604 266.098 9.78445 265.93C10.0657 265.763 10.2859 265.533 10.445 265.24C10.6069 264.945 10.6879 264.611 10.6879 264.239C10.6879 263.858 10.604 263.518 10.4364 263.22C10.2717 262.919 10.0444 262.682 9.75462 262.509C9.46484 262.335 9.13388 262.247 8.76172 262.244C8.49467 262.241 8.22053 262.283 7.93928 262.368C7.65803 262.45 7.42649 262.557 7.24467 262.688L6.25604 262.568L6.78445 258.273H11.3185V259.21H7.67081L7.36399 261.784H7.41513C7.59411 261.642 7.81854 261.524 8.08842 261.43C8.35831 261.337 8.63956 261.29 8.93217 261.29C9.46626 261.29 9.94212 261.418 10.3597 261.673C10.7802 261.926 11.1097 262.273 11.3484 262.713C11.5898 263.153 11.7106 263.656 11.7106 264.222C11.7106 264.778 11.5856 265.276 11.3356 265.713C11.0884 266.148 10.7475 266.491 10.3129 266.744C9.8782 266.994 9.38388 267.119 8.8299 267.119ZM16.25 267.119C15.608 267.119 15.0611 266.945 14.6094 266.595C14.1577 266.243 13.8125 265.733 13.5739 265.065C13.3352 264.395 13.2159 263.585 13.2159 262.636C13.2159 261.693 13.3352 260.888 13.5739 260.22C13.8153 259.55 14.1619 259.038 14.6136 258.686C15.0682 258.331 15.6136 258.153 16.25 258.153C16.8864 258.153 17.4304 258.331 17.8821 258.686C18.3366 259.038 18.6832 259.55 18.9219 260.22C19.1634 260.888 19.2841 261.693 19.2841 262.636C19.2841 263.585 19.1648 264.395 18.9261 265.065C18.6875 265.733 18.3423 266.243 17.8906 266.595C17.4389 266.945 16.892 267.119 16.25 267.119ZM16.25 266.182C16.8864 266.182 17.3807 265.875 17.733 265.261C18.0852 264.648 18.2614 263.773 18.2614 262.636C18.2614 261.881 18.1804 261.237 18.0185 260.706C17.8594 260.175 17.6293 259.77 17.3281 259.491C17.0298 259.213 16.6705 259.074 16.25 259.074C15.6193 259.074 15.1264 259.385 14.7713 260.007C14.4162 260.626 14.2386 261.503 14.2386 262.636C14.2386 263.392 14.3182 264.034 14.4773 264.562C14.6364 265.091 14.8651 265.493 15.1634 265.768C15.4645 266.044 15.8267 266.182 16.25 266.182Z" fill="black"/>
<path d="M30 267H25" stroke="black" stroke-linecap="round"/>
<path d="M5.49964 290.21V289.341L9.33487 283.273H9.96555V284.619H9.53942L6.64169 289.205V289.273H11.8065V290.21H5.49964ZM9.6076 292V289.946V289.541V283.273H10.6133V292H9.6076ZM16.25 292.119C15.608 292.119 15.0611 291.945 14.6094 291.595C14.1577 291.243 13.8125 290.733 13.5739 290.065C13.3352 289.395 13.2159 288.585 13.2159 287.636C13.2159 286.693 13.3352 285.888 13.5739 285.22C13.8153 284.55 14.1619 284.038 14.6136 283.686C15.0682 283.331 15.6136 283.153 16.25 283.153C16.8864 283.153 17.4304 283.331 17.8821 283.686C18.3366 284.038 18.6832 284.55 18.9219 285.22C19.1634 285.888 19.2841 286.693 19.2841 287.636C19.2841 288.585 19.1648 289.395 18.9261 290.065C18.6875 290.733 18.3423 291.243 17.8906 291.595C17.4389 291.945 16.892 292.119 16.25 292.119ZM16.25 291.182C16.8864 291.182 17.3807 290.875 17.733 290.261C18.0852 289.648 18.2614 288.773 18.2614 287.636C18.2614 286.881 18.1804 286.237 18.0185 285.706C17.8594 285.175 17.6293 284.77 17.3281 284.491C17.0298 284.213 16.6705 284.074 16.25 284.074C15.6193 284.074 15.1264 284.385 14.7713 285.007C14.4162 285.626 14.2386 286.503 14.2386 287.636C14.2386 288.392 14.3182 289.034 14.4773 289.562C14.6364 290.091 14.8651 290.493 15.1634 290.768C15.4645 291.044 15.8267 291.182 16.25 291.182Z" fill="black"/>
<path d="M30 292H25" stroke="black" stroke-linecap="round"/>
<path d="M8.71165 317.119C8.14915 317.119 7.64773 317.023 7.20739 316.83C6.76989 316.636 6.42188 316.368 6.16335 316.024C5.90767 315.678 5.76847 315.276 5.74574 314.818H6.8196C6.84233 315.099 6.93892 315.342 7.10938 315.547C7.27983 315.749 7.50284 315.905 7.77841 316.016C8.05398 316.126 8.35938 316.182 8.6946 316.182C9.0696 316.182 9.40199 316.116 9.69176 315.986C9.98153 315.855 10.2088 315.673 10.3736 315.44C10.5384 315.207 10.6207 314.938 10.6207 314.631C10.6207 314.31 10.5412 314.027 10.3821 313.783C10.223 313.536 9.99006 313.342 9.68324 313.203C9.37642 313.064 9.00142 312.994 8.55824 312.994H7.85938V312.057H8.55824C8.90483 312.057 9.20881 311.994 9.47017 311.869C9.73438 311.744 9.94034 311.568 10.0881 311.341C10.2386 311.114 10.3139 310.847 10.3139 310.54C10.3139 310.244 10.2486 309.987 10.1179 309.768C9.98722 309.55 9.80256 309.379 9.56392 309.257C9.32813 309.135 9.04972 309.074 8.72869 309.074C8.42756 309.074 8.14347 309.129 7.87642 309.24C7.61222 309.348 7.39631 309.506 7.22869 309.713C7.06108 309.918 6.97017 310.165 6.95597 310.455H5.93324C5.95028 309.997 6.08807 309.597 6.34659 309.253C6.60511 308.906 6.94318 308.636 7.3608 308.443C7.78125 308.25 8.2429 308.153 8.74574 308.153C9.28551 308.153 9.74858 308.263 10.1349 308.482C10.5213 308.697 10.8182 308.983 11.0256 309.338C11.233 309.693 11.3366 310.077 11.3366 310.489C11.3366 310.98 11.2074 311.399 10.9489 311.746C10.6932 312.092 10.3452 312.332 9.90483 312.466V312.534C10.456 312.625 10.8864 312.859 11.196 313.237C11.5057 313.612 11.6605 314.077 11.6605 314.631C11.6605 315.105 11.5313 315.531 11.2727 315.909C11.017 316.284 10.6676 316.58 10.2244 316.795C9.78125 317.011 9.27699 317.119 8.71165 317.119ZM16.25 317.119C15.608 317.119 15.0611 316.945 14.6094 316.595C14.1577 316.243 13.8125 315.733 13.5739 315.065C13.3352 314.395 13.2159 313.585 13.2159 312.636C13.2159 311.693 13.3352 310.888 13.5739 310.22C13.8153 309.55 14.1619 309.038 14.6136 308.686C15.0682 308.331 15.6136 308.153 16.25 308.153C16.8864 308.153 17.4304 308.331 17.8821 308.686C18.3366 309.038 18.6832 309.55 18.9219 310.22C19.1634 310.888 19.2841 311.693 19.2841 312.636C19.2841 313.585 19.1648 314.395 18.9261 315.065C18.6875 315.733 18.3423 316.243 17.8906 316.595C17.4389 316.945 16.892 317.119 16.25 317.119ZM16.25 316.182C16.8864 316.182 17.3807 315.875 17.733 315.261C18.0852 314.648 18.2614 313.773 18.2614 312.636C18.2614 311.881 18.1804 311.237 18.0185 310.706C17.8594 310.175 17.6293 309.77 17.3281 309.491C17.0298 309.213 16.6705 309.074 16.25 309.074C15.6193 309.074 15.1264 309.385 14.7713 310.007C14.4162 310.626 14.2386 311.503 14.2386 312.636C14.2386 313.392 14.3182 314.034 14.4773 314.562C14.6364 315.091 14.8651 315.493 15.1634 315.768C15.4645 316.044 15.8267 316.182 16.25 316.182Z" fill="black"/>
<path d="M30 317H25" stroke="black" stroke-linecap="round"/>
<path d="M6.13778 342V341.233L9.01847 338.08C9.35653 337.71 9.63494 337.389 9.85369 337.116C10.0724 336.841 10.2344 336.582 10.3395 336.341C10.4474 336.097 10.5014 335.841 10.5014 335.574C10.5014 335.267 10.4276 335.001 10.2798 334.777C10.1349 334.553 9.93608 334.379 9.68324 334.257C9.4304 334.135 9.14631 334.074 8.83097 334.074C8.49574 334.074 8.20312 334.143 7.95312 334.283C7.70597 334.419 7.5142 334.611 7.37784 334.858C7.24432 335.105 7.17756 335.395 7.17756 335.727H6.17188C6.17188 335.216 6.28977 334.767 6.52557 334.381C6.76136 333.994 7.08239 333.693 7.48864 333.477C7.89773 333.261 8.35653 333.153 8.86506 333.153C9.37642 333.153 9.82955 333.261 10.2244 333.477C10.6193 333.693 10.929 333.984 11.1534 334.351C11.3778 334.717 11.4901 335.125 11.4901 335.574C11.4901 335.895 11.4318 336.209 11.3153 336.516C11.2017 336.82 11.0028 337.159 10.7188 337.534C10.4375 337.906 10.0469 338.361 9.54688 338.898L7.58665 340.994V341.062H11.6435V342H6.13778ZM16.25 342.119C15.608 342.119 15.0611 341.945 14.6094 341.595C14.1577 341.243 13.8125 340.733 13.5739 340.065C13.3352 339.395 13.2159 338.585 13.2159 337.636C13.2159 336.693 13.3352 335.888 13.5739 335.22C13.8153 334.55 14.1619 334.038 14.6136 333.686C15.0682 333.331 15.6136 333.153 16.25 333.153C16.8864 333.153 17.4304 333.331 17.8821 333.686C18.3366 334.038 18.6832 334.55 18.9219 335.22C19.1634 335.888 19.2841 336.693 19.2841 337.636C19.2841 338.585 19.1648 339.395 18.9261 340.065C18.6875 340.733 18.3423 341.243 17.8906 341.595C17.4389 341.945 16.892 342.119 16.25 342.119ZM16.25 341.182C16.8864 341.182 17.3807 340.875 17.733 340.261C18.0852 339.648 18.2614 338.773 18.2614 337.636C18.2614 336.881 18.1804 336.237 18.0185 335.706C17.8594 335.175 17.6293 334.77 17.3281 334.491C17.0298 334.213 16.6705 334.074 16.25 334.074C15.6193 334.074 15.1264 334.385 14.7713 335.007C14.4162 335.626 14.2386 336.503 14.2386 337.636C14.2386 338.392 14.3182 339.034 14.4773 339.562C14.6364 340.091 14.8651 340.493 15.1634 340.768C15.4645 341.044 15.8267 341.182 16.25 341.182Z" fill="black"/>
<path d="M30 342H25" stroke="black" stroke-linecap="round"/>
<path d="M10.8935 358.273V367H9.83665V359.381H9.78551L7.65483 360.795V359.722L9.83665 358.273H10.8935ZM16.25 367.119C15.608 367.119 15.0611 366.945 14.6094 366.595C14.1577 366.243 13.8125 365.733 13.5739 365.065C13.3352 364.395 13.2159 363.585 13.2159 362.636C13.2159 361.693 13.3352 360.888 13.5739 360.22C13.8153 359.55 14.1619 359.038 14.6136 358.686C15.0682 358.331 15.6136 358.153 16.25 358.153C16.8864 358.153 17.4304 358.331 17.8821 358.686C18.3366 359.038 18.6832 359.55 18.9219 360.22C19.1634 360.888 19.2841 361.693 19.2841 362.636C19.2841 363.585 19.1648 364.395 18.9261 365.065C18.6875 365.733 18.3423 366.243 17.8906 366.595C17.4389 366.945 16.892 367.119 16.25 367.119ZM16.25 366.182C16.8864 366.182 17.3807 365.875 17.733 365.261C18.0852 364.648 18.2614 363.773 18.2614 362.636C18.2614 361.881 18.1804 361.237 18.0185 360.706C17.8594 360.175 17.6293 359.77 17.3281 359.491C17.0298 359.213 16.6705 359.074 16.25 359.074C15.6193 359.074 15.1264 359.385 14.7713 360.007C14.4162 360.626 14.2386 361.503 14.2386 362.636C14.2386 363.392 14.3182 364.034 14.4773 364.562C14.6364 365.091 14.8651 365.493 15.1634 365.768C15.4645 366.044 15.8267 366.182 16.25 366.182Z" fill="black"/>
<path d="M30 367H25" stroke="black" stroke-linecap="round"/>
<path d="M16.25 392.119C15.608 392.119 15.0611 391.945 14.6094 391.595C14.1577 391.243 13.8125 390.733 13.5739 390.065C13.3352 389.395 13.2159 388.585 13.2159 387.636C13.2159 386.693 13.3352 385.888 13.5739 385.22C13.8153 384.55 14.1619 384.038 14.6136 383.686C15.0682 383.331 15.6136 383.153 16.25 383.153C16.8864 383.153 17.4304 383.331 17.8821 383.686C18.3366 384.038 18.6832 384.55 18.9219 385.22C19.1634 385.888 19.2841 386.693 19.2841 387.636C19.2841 388.585 19.1648 389.395 18.9261 390.065C18.6875 390.733 18.3423 391.243 17.8906 391.595C17.4389 391.945 16.892 392.119 16.25 392.119ZM16.25 391.182C16.8864 391.182 17.3807 390.875 17.733 390.261C18.0852 389.648 18.2614 388.773 18.2614 387.636C18.2614 386.881 18.1804 386.237 18.0185 385.706C17.8594 385.175 17.6293 384.77 17.3281 384.491C17.0298 384.213 16.6705 384.074 16.25 384.074C15.6193 384.074 15.1264 384.385 14.7713 385.007C14.4162 385.626 14.2386 386.503 14.2386 387.636C14.2386 388.392 14.3182 389.034 14.4773 389.562C14.6364 390.091 14.8651 390.493 15.1634 390.768C15.4645 391.044 15.8267 391.182 16.25 391.182Z" fill="black"/>
<path d="M30 392H25" stroke="black" stroke-linecap="round"/>
<path d="M277.433 398.273V407H276.376V399.381H276.325L274.194 400.795V399.722L276.376 398.273H277.433ZM282.789 407.119C282.147 407.119 281.6 406.945 281.148 406.595C280.697 406.243 280.352 405.733 280.113 405.065C279.874 404.395 279.755 403.585 279.755 402.636C279.755 401.693 279.874 400.888 280.113 400.22C280.354 399.55 280.701 399.038 281.153 398.686C281.607 398.331 282.153 398.153 282.789 398.153C283.425 398.153 283.969 398.331 284.421 398.686C284.876 399.038 285.222 399.55 285.461 400.22C285.702 400.888 285.823 401.693 285.823 402.636C285.823 403.585 285.704 404.395 285.465 405.065C285.227 405.733 284.881 406.243 284.43 406.595C283.978 406.945 283.431 407.119 282.789 407.119ZM282.789 406.182C283.425 406.182 283.92 405.875 284.272 405.261C284.624 404.648 284.8 403.773 284.8 402.636C284.8 401.881 284.719 401.237 284.558 400.706C284.398 400.175 284.168 399.77 283.867 399.491C283.569 399.213 283.21 399.074 282.789 399.074C282.158 399.074 281.665 399.385 281.31 400.007C280.955 400.626 280.778 401.503 280.778 402.636C280.778 403.392 280.857 404.034 281.016 404.562C281.175 405.091 281.404 405.493 281.702 405.768C282.004 406.044 282.366 406.182 282.789 406.182Z" fill="black"/>
<path d="M280 392V142" stroke="#DDDDDD" stroke-linecap="round"/>
<path d="M280 392V397" stroke="black" stroke-linecap="round"/>
<path d="M254.938 398.153C255.296 398.156 255.654 398.224 256.012 398.358C256.369 398.491 256.696 398.713 256.992 399.023C257.287 399.33 257.524 399.749 257.703 400.28C257.882 400.811 257.972 401.477 257.972 402.278C257.972 403.054 257.898 403.743 257.75 404.345C257.605 404.945 257.395 405.45 257.119 405.862C256.847 406.274 256.514 406.587 256.122 406.8C255.733 407.013 255.293 407.119 254.801 407.119C254.313 407.119 253.877 407.023 253.493 406.83C253.112 406.634 252.8 406.362 252.556 406.016C252.314 405.666 252.159 405.261 252.091 404.801H253.131C253.225 405.202 253.411 405.533 253.689 405.794C253.97 406.053 254.341 406.182 254.801 406.182C255.475 406.182 256.006 405.888 256.395 405.3C256.787 404.712 256.983 403.881 256.983 402.807H256.915C256.756 403.045 256.567 403.251 256.348 403.425C256.129 403.598 255.887 403.732 255.619 403.825C255.352 403.919 255.068 403.966 254.767 403.966C254.267 403.966 253.808 403.842 253.391 403.595C252.976 403.345 252.644 403.003 252.394 402.568C252.146 402.131 252.023 401.631 252.023 401.068C252.023 400.534 252.142 400.045 252.381 399.602C252.622 399.156 252.96 398.801 253.395 398.537C253.833 398.273 254.347 398.145 254.938 398.153ZM254.938 399.091C254.58 399.091 254.257 399.18 253.97 399.359C253.686 399.536 253.46 399.774 253.293 400.075C253.128 400.374 253.046 400.705 253.046 401.068C253.046 401.432 253.125 401.763 253.284 402.061C253.446 402.357 253.666 402.592 253.945 402.768C254.226 402.942 254.546 403.028 254.904 403.028C255.173 403.028 255.425 402.976 255.658 402.871C255.891 402.763 256.094 402.616 256.267 402.432C256.443 402.244 256.581 402.033 256.681 401.797C256.78 401.558 256.83 401.31 256.83 401.051C256.83 400.71 256.747 400.391 256.583 400.092C256.421 399.794 256.196 399.553 255.909 399.368C255.625 399.183 255.301 399.091 254.938 399.091Z" fill="black"/>
<path d="M255 392V142" stroke="#DDDDDD" stroke-linecap="round"/>
<path d="M255 392V397" stroke="black" stroke-linecap="round"/>
<path d="M230.002 407.119C229.416 407.119 228.899 407.016 228.45 406.808C228.004 406.598 227.656 406.31 227.406 405.943C227.156 405.574 227.033 405.153 227.036 404.682C227.033 404.312 227.105 403.972 227.253 403.659C227.401 403.344 227.602 403.081 227.858 402.871C228.117 402.658 228.405 402.523 228.723 402.466V402.415C228.306 402.307 227.973 402.072 227.726 401.712C227.479 401.348 227.357 400.935 227.36 400.472C227.357 400.028 227.469 399.632 227.696 399.283C227.923 398.933 228.236 398.658 228.634 398.456C229.034 398.254 229.49 398.153 230.002 398.153C230.507 398.153 230.959 398.254 231.357 398.456C231.754 398.658 232.067 398.933 232.294 399.283C232.524 399.632 232.641 400.028 232.644 400.472C232.641 400.935 232.514 401.348 232.264 401.712C232.017 402.072 231.689 402.307 231.28 402.415V402.466C231.595 402.523 231.879 402.658 232.132 402.871C232.385 403.081 232.587 403.344 232.737 403.659C232.888 403.972 232.965 404.312 232.968 404.682C232.965 405.153 232.837 405.574 232.584 405.943C232.334 406.31 231.986 406.598 231.54 406.808C231.097 407.016 230.584 407.119 230.002 407.119ZM230.002 406.182C230.396 406.182 230.737 406.118 231.024 405.99C231.311 405.862 231.533 405.682 231.689 405.449C231.845 405.216 231.925 404.943 231.928 404.631C231.925 404.301 231.84 404.01 231.672 403.757C231.504 403.504 231.276 403.305 230.986 403.161C230.699 403.016 230.371 402.943 230.002 402.943C229.629 402.943 229.297 403.016 229.004 403.161C228.715 403.305 228.486 403.504 228.318 403.757C228.154 404.01 228.073 404.301 228.075 404.631C228.073 404.943 228.148 405.216 228.301 405.449C228.458 405.682 228.681 405.862 228.97 405.99C229.26 406.118 229.604 406.182 230.002 406.182ZM230.002 402.04C230.314 402.04 230.591 401.977 230.833 401.852C231.077 401.727 231.269 401.553 231.408 401.328C231.547 401.104 231.618 400.841 231.621 400.54C231.618 400.244 231.548 399.987 231.412 399.768C231.276 399.547 231.087 399.376 230.845 399.257C230.604 399.135 230.323 399.074 230.002 399.074C229.675 399.074 229.389 399.135 229.145 399.257C228.901 399.376 228.712 399.547 228.578 399.768C228.445 399.987 228.379 400.244 228.382 400.54C228.379 400.841 228.446 401.104 228.583 401.328C228.722 401.553 228.914 401.727 229.158 401.852C229.402 401.977 229.683 402.04 230.002 402.04Z" fill="black"/>
<path d="M230 392V142" stroke="#DDDDDD" stroke-linecap="round"/>
<path d="M230 392V397" stroke="black" stroke-linecap="round"/>
<path d="M202.748 407L206.652 399.278V399.21H202.152V398.273H207.743V399.261L203.856 407H202.748Z" fill="black"/>
<path d="M205 392V142" stroke="#DDDDDD" stroke-linecap="round"/>
<path d="M205 392V397" stroke="black" stroke-linecap="round"/>
<path d="M180.057 407.119C179.699 407.114 179.341 407.045 178.983 406.915C178.625 406.784 178.298 406.564 178.003 406.254C177.708 405.942 177.47 405.52 177.291 404.989C177.112 404.455 177.023 403.784 177.023 402.977C177.023 402.205 177.095 401.52 177.24 400.923C177.385 400.324 177.595 399.82 177.871 399.411C178.146 398.999 178.479 398.686 178.868 398.473C179.26 398.26 179.702 398.153 180.193 398.153C180.682 398.153 181.117 398.251 181.497 398.447C181.881 398.641 182.193 398.911 182.435 399.257C182.676 399.604 182.833 400.003 182.904 400.455H181.864C181.767 400.062 181.58 399.737 181.301 399.479C181.023 399.22 180.654 399.091 180.193 399.091C179.517 399.091 178.985 399.385 178.595 399.973C178.209 400.561 178.014 401.386 178.012 402.449H178.08C178.239 402.207 178.428 402.001 178.646 401.831C178.868 401.658 179.112 401.524 179.379 401.43C179.646 401.337 179.929 401.29 180.227 401.29C180.727 401.29 181.185 401.415 181.6 401.665C182.014 401.912 182.347 402.254 182.597 402.692C182.847 403.126 182.972 403.625 182.972 404.188C182.972 404.727 182.851 405.222 182.61 405.67C182.368 406.116 182.029 406.472 181.591 406.736C181.156 406.997 180.645 407.125 180.057 407.119ZM180.057 406.182C180.415 406.182 180.736 406.092 181.02 405.913C181.307 405.734 181.533 405.494 181.698 405.193C181.865 404.892 181.949 404.557 181.949 404.188C181.949 403.827 181.868 403.499 181.706 403.203C181.547 402.905 181.327 402.668 181.046 402.491C180.767 402.315 180.449 402.227 180.091 402.227C179.821 402.227 179.57 402.281 179.337 402.389C179.104 402.494 178.899 402.639 178.723 402.824C178.55 403.009 178.414 403.22 178.314 403.459C178.215 403.695 178.165 403.943 178.165 404.205C178.165 404.551 178.246 404.875 178.408 405.176C178.573 405.477 178.797 405.72 179.081 405.905C179.368 406.089 179.693 406.182 180.057 406.182Z" fill="black"/>
<path d="M180 392V142" stroke="#DDDDDD" stroke-linecap="round"/>
<path d="M180 392V397" stroke="black" stroke-linecap="round"/>
<path d="M154.98 407.119C154.48 407.119 154.03 407.02 153.629 406.821C153.229 406.622 152.908 406.349 152.666 406.003C152.425 405.656 152.293 405.261 152.27 404.818H153.293C153.333 405.213 153.512 405.54 153.83 405.798C154.151 406.054 154.534 406.182 154.98 406.182C155.338 406.182 155.656 406.098 155.935 405.93C156.216 405.763 156.436 405.533 156.595 405.24C156.757 404.945 156.838 404.611 156.838 404.239C156.838 403.858 156.754 403.518 156.587 403.22C156.422 402.919 156.195 402.682 155.905 402.509C155.615 402.335 155.284 402.247 154.912 402.244C154.645 402.241 154.371 402.283 154.09 402.368C153.808 402.45 153.577 402.557 153.395 402.688L152.406 402.568L152.935 398.273H157.469V399.21H153.821L153.514 401.784H153.566C153.744 401.642 153.969 401.524 154.239 401.43C154.509 401.337 154.79 401.29 155.083 401.29C155.617 401.29 156.093 401.418 156.51 401.673C156.931 401.926 157.26 402.273 157.499 402.713C157.74 403.153 157.861 403.656 157.861 404.222C157.861 404.778 157.736 405.276 157.486 405.713C157.239 406.148 156.898 406.491 156.463 406.744C156.029 406.994 155.534 407.119 154.98 407.119Z" fill="black"/>
<path d="M155 392V142" stroke="#DDDDDD" stroke-linecap="round"/>
<path d="M155 392V397" stroke="black" stroke-linecap="round"/>
<path d="M126.849 405.21V404.341L130.684 398.273H131.315V399.619H130.889L127.991 404.205V404.273H133.156V405.21H126.849ZM130.957 407V404.946V404.541V398.273H131.963V407H130.957Z" fill="black"/>
<path d="M130 392V142" stroke="#DDDDDD" stroke-linecap="round"/>
<path d="M130 392V397" stroke="black" stroke-linecap="round"/>
<path d="M105.032 407.119C104.469 407.119 103.968 407.023 103.528 406.83C103.09 406.636 102.742 406.368 102.484 406.024C102.228 405.678 102.089 405.276 102.066 404.818H103.14C103.163 405.099 103.259 405.342 103.43 405.547C103.6 405.749 103.823 405.905 104.099 406.016C104.374 406.126 104.68 406.182 105.015 406.182C105.39 406.182 105.722 406.116 106.012 405.986C106.302 405.855 106.529 405.673 106.694 405.44C106.859 405.207 106.941 404.938 106.941 404.631C106.941 404.31 106.862 404.027 106.702 403.783C106.543 403.536 106.31 403.342 106.004 403.203C105.697 403.064 105.322 402.994 104.879 402.994H104.18V402.057H104.879C105.225 402.057 105.529 401.994 105.79 401.869C106.055 401.744 106.261 401.568 106.408 401.341C106.559 401.114 106.634 400.847 106.634 400.54C106.634 400.244 106.569 399.987 106.438 399.768C106.308 399.55 106.123 399.379 105.884 399.257C105.648 399.135 105.37 399.074 105.049 399.074C104.748 399.074 104.464 399.129 104.197 399.24C103.933 399.348 103.717 399.506 103.549 399.713C103.381 399.918 103.29 400.165 103.276 400.455H102.254C102.271 399.997 102.408 399.597 102.667 399.253C102.925 398.906 103.263 398.636 103.681 398.443C104.102 398.25 104.563 398.153 105.066 398.153C105.606 398.153 106.069 398.263 106.455 398.482C106.842 398.697 107.138 398.983 107.346 399.338C107.553 399.693 107.657 400.077 107.657 400.489C107.657 400.98 107.528 401.399 107.269 401.746C107.013 402.092 106.665 402.332 106.225 402.466V402.534C106.776 402.625 107.207 402.859 107.516 403.237C107.826 403.612 107.981 404.077 107.981 404.631C107.981 405.105 107.852 405.531 107.593 405.909C107.337 406.284 106.988 406.58 106.545 406.795C106.102 407.011 105.597 407.119 105.032 407.119Z" fill="black"/>
<path d="M105 392V142" stroke="#DDDDDD" stroke-linecap="round"/>
<path d="M105 392V397" stroke="black" stroke-linecap="round"/>
<path d="M77.2706 407V406.233L80.1513 403.08C80.4893 402.71 80.7678 402.389 80.9865 402.116C81.2053 401.841 81.3672 401.582 81.4723 401.341C81.5803 401.097 81.6342 400.841 81.6342 400.574C81.6342 400.267 81.5604 400.001 81.4126 399.777C81.2678 399.553 81.0689 399.379 80.8161 399.257C80.5632 399.135 80.2791 399.074 79.9638 399.074C79.6286 399.074 79.3359 399.143 79.0859 399.283C78.8388 399.419 78.647 399.611 78.5107 399.858C78.3771 400.105 78.3104 400.395 78.3104 400.727H77.3047C77.3047 400.216 77.4226 399.767 77.6584 399.381C77.8942 398.994 78.2152 398.693 78.6214 398.477C79.0305 398.261 79.4893 398.153 79.9979 398.153C80.5092 398.153 80.9624 398.261 81.3572 398.477C81.7521 398.693 82.0618 398.984 82.2862 399.351C82.5107 399.717 82.6229 400.125 82.6229 400.574C82.6229 400.895 82.5646 401.209 82.4482 401.516C82.3345 401.82 82.1357 402.159 81.8516 402.534C81.5703 402.906 81.1797 403.361 80.6797 403.898L78.7195 405.994V406.062H82.7763V407H77.2706Z" fill="black"/>
<path d="M80 392V142" stroke="#DDDDDD" stroke-linecap="round"/>
<path d="M80 392V397" stroke="black" stroke-linecap="round"/>
<path d="M56.1825 398.273V407H55.1257V399.381H55.0746L52.9439 400.795V399.722L55.1257 398.273H56.1825Z" fill="black"/>
<path d="M55 392V142" stroke="#DDDDDD" stroke-linecap="round"/>
<path d="M55 392V397" stroke="black" stroke-linecap="round"/>
<path d="M30 407.119C29.358 407.119 28.8111 406.945 28.3594 406.595C27.9077 406.243 27.5625 405.733 27.3239 405.065C27.0852 404.395 26.9659 403.585 26.9659 402.636C26.9659 401.693 27.0852 400.888 27.3239 400.22C27.5653 399.55 27.9119 399.038 28.3636 398.686C28.8182 398.331 29.3636 398.153 30 398.153C30.6364 398.153 31.1804 398.331 31.6321 398.686C32.0866 399.038 32.4332 399.55 32.6719 400.22C32.9134 400.888 33.0341 401.693 33.0341 402.636C33.0341 403.585 32.9148 404.395 32.6761 405.065C32.4375 405.733 32.0923 406.243 31.6406 406.595C31.1889 406.945 30.642 407.119 30 407.119ZM30 406.182C30.6364 406.182 31.1307 405.875 31.483 405.261C31.8352 404.648 32.0114 403.773 32.0114 402.636C32.0114 401.881 31.9304 401.237 31.7685 400.706C31.6094 400.175 31.3793 399.77 31.0781 399.491C30.7798 399.213 30.4205 399.074 30 399.074C29.3693 399.074 28.8764 399.385 28.5213 400.007C28.1662 400.626 27.9886 401.503 27.9886 402.636C27.9886 403.392 28.0682 404.034 28.2273 404.562C28.3864 405.091 28.6151 405.493 28.9134 405.768C29.2145 406.044 29.5767 406.182 30 406.182Z" fill="black"/>
<path d="M30 392V142" stroke="#DDDDDD" stroke-linecap="round"/>
<path d="M30 392V397" stroke="black" stroke-linecap="round"/>
<path d="M30 392H280" stroke="black" stroke-linecap="round"/>
<path d="M30 142V392" stroke="black" stroke-linecap="round"/>
<path d="M130 260.894C129.82 260.658 129.587 260.348 129.316 259.98C128.664 259.095 127.795 257.875 126.927 256.536C126.058 255.196 125.196 253.747 124.553 252.4C123.901 251.035 123.509 249.845 123.509 249C123.509 245.415 126.415 242.509 130 242.509C133.585 242.509 136.491 245.415 136.491 249C136.491 249.845 136.099 251.035 135.447 252.4C134.804 253.747 133.942 255.196 133.073 256.536C132.205 257.875 131.336 259.095 130.684 259.98C130.413 260.348 130.18 260.658 130 260.894Z" fill="#4C86F6" stroke="black" stroke-width="1.01818"/>
<path d="M155 240.894C154.82 240.658 154.587 240.348 154.316 239.98C153.664 239.095 152.795 237.875 151.927 236.536C151.058 235.196 150.196 233.747 149.553 232.4C148.901 231.035 148.509 229.845 148.509 229C148.509 225.415 151.415 222.509 155 222.509C158.585 222.509 161.491 225.415 161.491 229C161.491 229.845 161.099 231.035 160.447 232.4C159.804 233.747 158.942 235.196 158.073 236.536C157.205 237.875 156.336 239.095 155.684 239.98C155.413 240.348 155.18 240.658 155 240.894Z" fill="#4C86F6" stroke="black" stroke-width="1.01818"/>
<path d="M205 243.894C204.82 243.658 204.587 243.348 204.316 242.98C203.664 242.095 202.795 240.875 201.927 239.536C201.058 238.196 200.196 236.747 199.553 235.4C198.901 234.035 198.509 232.845 198.509 232C198.509 228.415 201.415 225.509 205 225.509C208.585 225.509 211.491 228.415 211.491 232C211.491 232.845 211.099 234.035 210.447 235.4C209.804 236.747 208.942 238.196 208.073 239.536C207.205 240.875 206.336 242.095 205.684 242.98C205.413 243.348 205.18 243.658 205 243.894Z" fill="#8BD061" stroke="black" stroke-width="1.01818"/>
<path d="M205 202.894C204.82 202.658 204.587 202.348 204.316 201.98C203.664 201.095 202.795 199.875 201.927 198.536C201.058 197.196 200.196 195.747 199.553 194.4C198.901 193.035 198.509 191.845 198.509 191C198.509 187.415 201.415 184.509 205 184.509C208.585 184.509 211.491 187.415 211.491 191C211.491 191.845 211.099 193.035 210.447 194.4C209.804 195.747 208.942 197.196 208.073 198.536C207.205 199.875 206.336 201.095 205.684 201.98C205.413 202.348 205.18 202.658 205 202.894Z" fill="#4C86F6" stroke="black" stroke-width="1.01818"/>
<path d="M179.161 256.658C178.882 256.558 178.517 256.425 178.09 256.265C177.061 255.877 175.667 255.327 174.211 254.677C172.752 254.027 171.24 253.281 169.967 252.501C168.677 251.711 167.699 250.927 167.239 250.218C165.287 247.212 166.141 243.192 169.148 241.239C172.154 239.287 176.174 240.141 178.127 243.148C178.587 243.856 178.906 245.068 179.103 246.568C179.297 248.048 179.364 249.733 179.365 251.33C179.366 252.925 179.302 254.421 179.237 255.52C179.21 255.975 179.183 256.362 179.161 256.658Z" fill="#8BD061" stroke="black" stroke-width="1.01818"/>
<path d="M204.127 202.826C203.839 202.899 203.463 202.993 203.019 203.098C201.949 203.353 200.486 203.676 198.915 203.952C197.342 204.228 195.671 204.455 194.18 204.521C192.669 204.588 191.42 204.484 190.642 204.154C187.343 202.753 185.803 198.942 187.204 195.642C188.604 192.343 192.415 190.803 195.715 192.204C196.492 192.534 197.435 193.36 198.437 194.493C199.425 195.611 200.423 196.971 201.317 198.295C202.209 199.617 202.993 200.893 203.553 201.84C203.786 202.232 203.98 202.568 204.127 202.826Z" fill="#4C86F6" stroke="black" stroke-width="1.01818"/>
<path d="M205.502 202.826C205.649 202.568 205.843 202.232 206.076 201.84C206.636 200.893 207.42 199.617 208.313 198.295C209.207 196.971 210.204 195.611 211.192 194.493C212.194 193.36 213.137 192.534 213.914 192.204C217.214 190.803 221.025 192.343 222.426 195.642C223.826 198.942 222.287 202.753 218.987 204.154C218.209 204.484 216.96 204.588 215.449 204.521C213.958 204.455 212.287 204.228 210.714 203.952C209.143 203.676 207.681 203.353 206.61 203.098C206.166 202.993 205.79 202.899 205.502 202.826Z" fill="#8BD061" stroke="black" stroke-width="1.01818"/>
<path d="M180.81 256.658C180.788 256.362 180.761 255.975 180.734 255.52C180.67 254.422 180.605 252.925 180.606 251.33C180.607 249.733 180.674 248.048 180.868 246.568C181.065 245.068 181.384 243.856 181.844 243.148C183.797 240.141 187.817 239.287 190.823 241.239C193.83 243.192 194.684 247.212 192.732 250.218C192.272 250.927 191.294 251.712 190.004 252.501C188.732 253.281 187.219 254.027 185.761 254.677C184.304 255.327 182.911 255.877 181.881 256.265C181.454 256.425 181.09 256.558 180.81 256.658Z" fill="#8BD061" stroke="black" stroke-width="1.01818"/>
</g>
<path d="M396.938 405.5L403 395L409.062 405.5H396.938Z" fill="#E1A2FF" stroke="#350584"/>
<path d="M546.938 405.5L553 395L559.062 405.5H546.938Z" fill="#E1A2FF" stroke="#350584"/>
<rect opacity="0.3" x="403" y="144" width="150" height="250" fill="#E1A2FF"/>
<path d="M553 394V144.5" stroke="#350584" stroke-dasharray="2 2"/>
<path d="M403 394.5V145" stroke="#350584" stroke-dasharray="2 2"/>
<path d="M140.167 4.32601C160.602 4.37221 177.13 20.9751 177.083 41.4096C177.042 59.9095 177.021 69.1595 172.385 73.774C167.75 78.3886 158.5 78.3676 140 78.3258C119.565 78.2796 103.037 61.6767 103.084 41.2423C103.13 20.8078 119.733 4.2798 140.167 4.32601Z" fill="#84DE4C"/>
<path d="M140.167 4.32601C160.602 4.37221 177.13 20.9751 177.083 41.4096C177.042 59.9095 177.021 69.1595 172.385 73.774C167.75 78.3886 158.5 78.3676 140 78.3258C119.565 78.2796 103.037 61.6767 103.084 41.2423C103.13 20.8078 119.733 4.2798 140.167 4.32601Z" stroke="black"/>
<circle cx="139.623" cy="41.3249" r="12" transform="rotate(-44.8704 139.623 41.3249)" fill="black"/>
<path d="M402.247 11.1629C416.696 25.6123 416.696 49.0394 402.247 63.4888C389.165 76.5703 382.624 83.1111 376.084 83.1111C369.543 83.1111 363.002 76.5703 349.921 63.4888C335.471 49.0394 335.471 25.6123 349.921 11.1629C364.37 -3.28645 387.797 -3.28645 402.247 11.1629Z" fill="#D9D9D9"/>
<path d="M402.247 11.1629C416.696 25.6123 416.696 49.0394 402.247 63.4888C389.165 76.5703 382.624 83.1111 376.084 83.1111C369.543 83.1111 363.002 76.5703 349.921 63.4888C335.471 49.0394 335.471 25.6123 349.921 11.1629C364.37 -3.28645 387.797 -3.28645 402.247 11.1629Z" stroke="black"/>
<circle cx="375.623" cy="37.3248" r="12" transform="rotate(-44.8704 375.623 37.3248)" fill="black"/>
<path d="M213.758 4.08367C193.323 4.12987 176.795 20.7327 176.841 41.1672C176.883 59.6672 176.904 68.9172 181.54 73.5317C186.175 78.1462 195.425 78.1253 213.925 78.0835C234.359 78.0373 250.887 61.4344 250.841 40.9999C250.795 20.5654 234.192 4.03746 213.758 4.08367Z" fill="#46BDFF"/>
<path d="M213.758 4.08367C193.323 4.12987 176.795 20.7327 176.841 41.1672C176.883 59.6672 176.904 68.9172 181.54 73.5317C186.175 78.1462 195.425 78.1253 213.925 78.0835C234.359 78.0373 250.887 61.4344 250.841 40.9999C250.795 20.5654 234.192 4.03746 213.758 4.08367Z" stroke="black"/>
<circle cx="12" cy="12" r="12" transform="matrix(-0.708704 -0.705506 -0.705506 0.708704 231.273 41.0442)" fill="black"/>
<defs>
<clipPath id="clip0_0_1">
<rect width="300" height="300" fill="white" transform="translate(0 112)"/>
</clipPath>
</defs>
</svg>
